<svg width="595" height="1613" viewBox="0 0 595 1613" fill="none" xmlns="http://www.w3.org/2000/svg">
<g clip-path="url(#clip0_81_2273)">
<rect width="595" height="1613" fill="white"/>
<path d="M280.65 43.5456C280.65 42.504 280.827 41.5182 281.18 40.5882C281.534 39.6489 282.013 38.8398 282.617 38.1609C283.222 37.482 283.952 36.9425 284.808 36.5426C285.672 36.1427 286.589 35.9428 287.556 35.9428C288.886 35.9428 290.062 36.2822 291.085 36.9611C292.117 37.6308 292.903 38.5422 293.443 39.6954C293.982 40.8486 294.252 42.1413 294.252 43.5735C294.252 43.806 294.243 43.9967 294.224 44.1455H282.129C282.25 45.8939 282.859 47.2889 283.957 48.3306C285.063 49.3629 286.361 49.879 287.849 49.879C289.765 49.879 291.429 49.1211 292.843 47.6051L293.819 48.4561C293.001 49.3396 292.117 50.0185 291.169 50.4928C290.23 50.9671 289.104 51.2043 287.793 51.2043C286.844 51.2043 285.933 51.0183 285.059 50.6463C284.194 50.2743 283.436 49.7628 282.785 49.1118C282.134 48.4515 281.613 47.6423 281.222 46.6844C280.841 45.7172 280.65 44.671 280.65 43.5456ZM282.129 42.89H292.731C292.685 42.1367 292.541 41.4299 292.299 40.7696C292.057 40.0999 291.727 39.5001 291.308 38.97C290.89 38.4306 290.35 38.0074 289.69 37.7005C289.039 37.3843 288.309 37.2262 287.5 37.2262C286.068 37.2262 284.845 37.7656 283.831 38.8444C282.827 39.9232 282.259 41.2718 282.129 42.89Z" fill="#F2C158"/>
<path d="M298.367 32.4831V30.572H300.097V32.4831H298.367ZM298.535 50.8555V36.2915H299.93V50.8555H298.535Z" fill="#F2C158"/>
<path d="M304.505 42.8621C304.505 41.8484 304.705 40.9044 305.105 40.0302C305.505 39.1467 306.03 38.412 306.681 37.8261C307.342 37.2402 308.09 36.7798 308.927 36.445C309.764 36.1102 310.625 35.9428 311.508 35.9428C312.866 35.9428 314.052 36.245 315.066 36.8495C316.079 37.4541 316.921 38.2353 317.59 39.1932V36.2915H318.986V48.5956C318.986 50.6602 318.367 52.311 317.13 53.5479C315.837 54.8406 314.075 55.487 311.843 55.487C309.397 55.487 307.17 54.743 305.161 53.255L305.984 52.1111C307.779 53.4875 309.741 54.1757 311.871 54.1757C313.601 54.1757 314.986 53.6874 316.028 52.7109C317.07 51.7344 317.59 50.3347 317.59 48.5119V46.4054C316.028 48.6468 314.001 49.7674 311.508 49.7674C310.625 49.7674 309.764 49.6047 308.927 49.2792C308.09 48.9444 307.342 48.4887 306.681 47.912C306.03 47.3261 305.505 46.5961 305.105 45.7219C304.705 44.8384 304.505 43.8851 304.505 42.8621ZM306.012 42.8621C306.012 43.9316 306.272 44.8942 306.793 45.7498C307.314 46.6054 308.002 47.2657 308.858 47.7307C309.723 48.1957 310.653 48.4282 311.648 48.4282C312.401 48.4282 313.14 48.2934 313.866 48.0237C314.591 47.7539 315.233 47.3819 315.791 46.9076C316.358 46.4333 316.814 45.8428 317.158 45.136C317.502 44.4199 317.674 43.6526 317.674 42.8342C317.674 41.7554 317.381 40.7835 316.795 39.9186C316.209 39.0537 315.461 38.398 314.549 37.9516C313.638 37.5052 312.671 37.282 311.648 37.282C310.625 37.282 309.685 37.5052 308.83 37.9516C307.983 38.3887 307.3 39.0397 306.779 39.9046C306.268 40.7603 306.012 41.7461 306.012 42.8621Z" fill="#F2C158"/>
<path d="M324.301 50.8555V30H325.71V38.9979C326.872 36.9611 328.625 35.9428 330.969 35.9428C332.773 35.9428 334.191 36.4961 335.224 37.6029C336.265 38.7096 336.786 40.1557 336.786 41.9414V50.8555H335.391V42.1925C335.391 40.6765 334.982 39.4722 334.163 38.5794C333.345 37.6773 332.21 37.2262 330.759 37.2262C329.318 37.2262 328.114 37.7191 327.146 38.7049C326.188 39.6814 325.71 40.923 325.71 42.4296V50.8555H324.301Z" fill="#F2C158"/>
<path d="M340.483 37.575V36.2915H342.603V31.6322H343.998V36.2915H349.118V37.575H343.998V46.9634C343.998 48.8514 344.97 49.7953 346.914 49.7953C347.593 49.7953 348.309 49.6233 349.062 49.2792V50.6044C348.355 50.9392 347.565 51.1066 346.691 51.1066C345.482 51.1066 344.496 50.7718 343.733 50.1022C342.98 49.4326 342.603 48.4375 342.603 47.1169V37.575H340.483Z" fill="#F2C158"/>
<path fill-rule="evenodd" clip-rule="evenodd" d="M349.07 58.7636H261.382V58.3447H349.07V58.7636Z" fill="black"/>
<path d="M261.249 30.153C269.119 30.0685 275.567 36.3796 275.651 44.2493C275.736 52.1189 269.425 58.567 261.555 58.6515C253.685 58.736 247.237 52.4248 247.153 44.5552C247.068 36.6856 253.379 30.2375 261.249 30.153Z" fill="#132538"/>
<path d="M253.9 49.7976L256.173 45.9879C257.343 46.8679 257.74 47.4751 257.489 48.9881L257.502 51.9498C255.323 51.6095 254.572 51.1154 253.9 49.7976Z" fill="#7C848A"/>
<path d="M270.123 47.8683L265.493 47.9054C265.556 46.4197 265.843 45.7523 267.295 45.1697L269.838 43.5896C270.838 45.6684 270.858 46.5846 270.123 47.8683Z" fill="#7C848A"/>
<path d="M262.804 53.6777L260.207 49.8444C261.479 49.0735 262.193 48.9426 263.483 49.8283L266.208 51.0687C265.032 53.0538 264.281 53.5785 262.804 53.6777Z" fill="#7C848A"/>
<path d="M269.025 38.6798L266.76 42.4948C265.588 41.6175 265.19 41.0112 265.438 39.4976L265.418 36.5359C267.598 36.8712 268.35 37.3636 269.025 38.6798Z" fill="#7C848A"/>
<path d="M252.806 40.6466L257.436 40.5988C257.377 42.0846 257.091 42.7527 255.64 43.3387L253.101 44.9247C252.096 42.8482 252.073 41.932 252.806 40.6466Z" fill="#7C848A"/>
<path d="M260.618 34.4214L262.658 38.7268C261.228 39.4951 260.474 39.5984 259.295 38.5661L256.701 37.0704C258.231 34.978 259.087 34.4488 260.618 34.4214Z" fill="#7C848A"/>
<path d="M253.1 45.2392L256.804 42.8689C257.16 44.2392 257.015 45.0092 255.75 46.3826L253.78 49.2898C252.613 48.1127 252.569 47.1789 253.1 45.2392Z" fill="#975B47"/>
<path d="M266.671 50.9781L262.431 49.0063C263.399 47.9701 264.149 47.6888 266.082 48.0634L269.755 48.24C269.434 49.8807 268.656 50.4132 266.671 50.9781Z" fill="#975B47"/>
<path d="M258.303 52.5289L257.595 47.9069C258.994 48.1387 259.643 48.6064 260.403 50.4234L262.292 53.5784C260.749 54.2208 259.874 53.8682 258.303 52.5289Z" fill="#975B47"/>
<path d="M269.835 43.2357L266.136 45.6146C265.777 44.2451 265.92 43.4748 267.182 42.0984L269.145 39.1867C270.315 40.3612 270.361 41.2948 269.835 43.2357Z" fill="#975B47"/>
<path d="M256.652 37.3107L260.493 39.4806C259.528 40.5246 258.779 40.8096 256.845 40.4393L253.172 40.2735C253.487 38.6243 254.669 37.8846 256.652 37.3107Z" fill="#975B47"/>
<path d="M264.916 36.0514L265.293 40.7121C263.914 40.3812 263.299 39.8684 262.671 38.0018L261.012 34.7202C262.597 34.1894 263.444 34.6035 264.916 36.0514Z" fill="#975B47"/>
<path d="M263.151 42.2145C263.151 42.2308 263.151 42.2497 263.151 42.2714C263.146 42.2985 263.143 42.3229 263.143 42.3446C263.143 42.3717 263.143 42.3961 263.143 42.4178C263.138 42.4395 263.135 42.453 263.135 42.4585C263.124 42.4801 263.094 42.5425 263.045 42.6455C262.991 42.7485 262.937 42.8596 262.883 42.9789C262.823 43.0982 262.769 43.2093 262.72 43.3123C262.666 43.4153 262.631 43.4776 262.614 43.4993V43.5888V43.6782C262.663 43.7162 262.731 43.7731 262.818 43.849C262.904 43.9303 262.999 44.0197 263.102 44.1173C263.205 44.2203 263.311 44.3287 263.419 44.4426C263.528 44.5619 263.625 44.6811 263.712 44.8004C263.793 44.9251 263.864 45.047 263.924 45.1663C263.978 45.2856 264.005 45.3994 264.005 45.5078C264.005 45.7843 263.929 46.0147 263.777 46.199C263.625 46.3834 263.43 46.5297 263.192 46.6381C262.953 46.752 262.685 46.8333 262.387 46.8821C262.089 46.9363 261.793 46.9715 261.5 46.9878C261.208 47.0041 260.934 47.0095 260.679 47.0041C260.424 47.0041 260.218 47.0041 260.061 47.0041C259.871 47.0041 259.722 46.9499 259.614 46.8414C259.505 46.7384 259.451 46.5921 259.451 46.4023C259.451 46.256 259.486 46.096 259.557 45.9226C259.627 45.7491 259.719 45.5729 259.833 45.394C259.947 45.2151 260.072 45.0389 260.207 44.8654C260.337 44.692 260.47 44.5266 260.606 44.3694C260.736 44.2176 260.855 44.0821 260.964 43.9628C261.072 43.8436 261.156 43.7487 261.216 43.6782C261.124 43.5373 261.034 43.3963 260.947 43.2554C260.861 43.1198 260.785 42.9816 260.72 42.8407C260.655 42.6997 260.603 42.5533 260.565 42.4015C260.527 42.2552 260.508 42.1007 260.508 41.938C260.508 41.5694 260.622 41.2983 260.85 41.1249C261.072 40.9568 261.362 40.8728 261.72 40.8728C261.904 40.8728 262.083 40.9053 262.257 40.9704C262.425 41.0408 262.576 41.1357 262.712 41.255C262.842 41.3797 262.948 41.5233 263.029 41.686C263.11 41.854 263.151 42.0302 263.151 42.2145ZM262.281 42.1901C262.281 42.0221 262.224 41.8784 262.11 41.7591C261.996 41.6399 261.842 41.5802 261.647 41.5802C261.527 41.5802 261.424 41.6046 261.338 41.6534C261.246 41.7076 261.199 41.7944 261.199 41.9136C261.199 42.0329 261.224 42.1413 261.273 42.2389C261.316 42.3365 261.373 42.4286 261.443 42.5154C261.508 42.6075 261.582 42.6916 261.663 42.7675C261.744 42.8434 261.828 42.9138 261.915 42.9789C262.045 42.8922 262.14 42.7756 262.2 42.6292C262.254 42.4883 262.281 42.3419 262.281 42.1901ZM263.151 45.5973C263.151 45.4618 263.11 45.3208 263.029 45.1744C262.948 45.0281 262.847 44.8953 262.728 44.776C262.609 44.6567 262.476 44.5564 262.33 44.4751C262.183 44.3992 262.045 44.3613 261.915 44.3613C261.893 44.3613 261.864 44.3613 261.826 44.3613C261.782 44.3667 261.755 44.3694 261.744 44.3694C261.706 44.4019 261.636 44.4616 261.533 44.5483C261.424 44.6405 261.313 44.7435 261.199 44.8573C261.086 44.9766 260.98 45.1013 260.882 45.2314C260.785 45.3615 260.72 45.4834 260.687 45.5973C260.779 45.7328 260.866 45.8358 260.947 45.9063C261.023 45.9822 261.105 46.0364 261.191 46.0689C261.273 46.1015 261.359 46.1204 261.452 46.1258C261.544 46.1313 261.652 46.134 261.777 46.134C261.874 46.134 262.002 46.134 262.159 46.134C262.316 46.134 262.468 46.1177 262.614 46.0852C262.761 46.0581 262.888 46.0066 262.997 45.9307C263.1 45.8548 263.151 45.7437 263.151 45.5973Z" fill="#F2C158"/>
<path d="M305.512 65.5177C305.313 65.5177 305.169 65.4493 305.08 65.3124C304.991 65.1716 304.946 65.0093 304.946 64.8255C304.946 64.6534 304.979 64.4813 305.044 64.3092C305.113 64.1332 305.206 63.9865 305.323 63.8692C305.445 63.7518 305.587 63.6932 305.749 63.6932C305.757 63.6932 305.776 63.6951 305.804 63.699C305.832 63.699 305.851 63.701 305.859 63.7049C305.98 63.5876 306.106 63.5289 306.236 63.5289C306.354 63.5289 306.453 63.5797 306.534 63.6814C306.619 63.7792 306.662 63.9181 306.662 64.098C306.662 64.2231 306.641 64.3561 306.601 64.4969C306.56 64.6377 306.508 64.7707 306.443 64.8959C306.382 65.0171 306.315 65.1168 306.242 65.1951C306.258 65.199 306.272 65.2009 306.285 65.2009C306.297 65.2009 306.311 65.2009 306.327 65.2009C306.469 65.2009 306.609 65.1657 306.747 65.0953C306.885 65.0249 307.015 64.933 307.136 64.8196C307.262 64.7023 307.371 64.5751 307.465 64.4383C307.485 64.4148 307.499 64.403 307.507 64.403C307.528 64.403 307.538 64.4167 307.538 64.4441C307.538 64.4715 307.53 64.495 307.513 64.5145C307.473 64.5849 307.41 64.6671 307.325 64.7609C307.24 64.8509 307.14 64.9408 307.027 65.0308C306.917 65.1208 306.8 65.1951 306.674 65.2537C306.548 65.3124 306.422 65.3417 306.297 65.3417C306.268 65.3417 306.238 65.3398 306.205 65.3359C306.177 65.3281 306.149 65.3222 306.12 65.3183C306.055 65.3769 305.962 65.4239 305.84 65.4591C305.719 65.4982 305.609 65.5177 305.512 65.5177ZM306.072 65.1423C306.189 65.0171 306.281 64.8568 306.345 64.6612C306.41 64.4656 306.443 64.2779 306.443 64.098C306.443 64.0745 306.443 64.051 306.443 64.0276C306.443 64.0041 306.441 63.9826 306.437 63.963C306.424 63.8613 306.4 63.789 306.364 63.746C306.327 63.699 306.285 63.6756 306.236 63.6756C306.163 63.6756 306.086 63.7186 306.005 63.8046C305.928 63.8868 305.873 63.9865 305.84 64.1038C305.808 64.2173 305.792 64.3366 305.792 64.4617C305.792 64.6064 305.814 64.7433 305.859 64.8724C305.903 64.9976 305.974 65.0875 306.072 65.1423ZM305.634 65.3652C305.751 65.3652 305.861 65.3261 305.962 65.2479C305.849 65.1696 305.765 65.0621 305.713 64.9252C305.66 64.7883 305.634 64.6436 305.634 64.4911C305.634 64.3815 305.646 64.274 305.67 64.1684C305.699 64.0589 305.737 63.9611 305.786 63.875C305.709 63.8907 305.634 63.9552 305.561 64.0686C305.488 64.1821 305.427 64.315 305.378 64.4676C305.334 64.6201 305.311 64.7668 305.311 64.9076C305.311 65.0367 305.336 65.1462 305.384 65.2361C305.433 65.3222 305.516 65.3652 305.634 65.3652Z" fill="black"/>
<path d="M308.459 65.4825C308.357 65.4825 308.28 65.4532 308.228 65.3945C308.175 65.332 308.149 65.2518 308.149 65.154C308.149 65.111 308.153 65.064 308.161 65.0132C308.173 64.9584 308.191 64.9056 308.216 64.8548C308.26 64.7531 308.311 64.6573 308.368 64.5673C308.428 64.4735 308.483 64.3718 308.532 64.2622C308.56 64.2036 308.574 64.1508 308.574 64.1038C308.574 64.0452 308.55 64.0061 308.501 63.9865C308.453 63.963 308.394 63.9493 308.325 63.9454C308.256 63.9376 308.191 63.9278 308.13 63.9161C308.066 64.096 307.988 64.2564 307.899 64.3972C307.814 64.538 307.707 64.6788 307.577 64.8196C307.532 64.8626 307.5 64.8841 307.48 64.8841C307.463 64.8841 307.455 64.8763 307.455 64.8607C307.455 64.8333 307.477 64.7961 307.522 64.7492C307.611 64.6514 307.69 64.5478 307.759 64.4383C307.832 64.3248 307.891 64.2192 307.936 64.1214C307.984 64.0237 308.015 63.9513 308.027 63.9044C307.938 63.8692 307.867 63.8027 307.814 63.7049C307.761 63.6032 307.735 63.5035 307.735 63.4057C307.735 63.2884 307.765 63.1925 307.826 63.1182C307.887 63.04 307.95 63.0009 308.015 63.0009C308.072 63.0009 308.122 63.0322 308.167 63.0947C308.212 63.1573 308.234 63.2629 308.234 63.4116C308.234 63.4741 308.226 63.5387 308.209 63.6052C308.193 63.6677 308.179 63.7205 308.167 63.7636C308.216 63.7714 308.272 63.7773 308.337 63.7812C308.402 63.7812 308.457 63.7831 308.501 63.787C308.554 63.787 308.605 63.789 308.654 63.7929C308.706 63.7968 308.753 63.8046 308.793 63.8164C308.903 63.8477 308.958 63.9122 308.958 64.01C308.958 64.096 308.923 64.2036 308.854 64.3326C308.802 64.4422 308.743 64.5517 308.678 64.6612C308.613 64.7707 308.558 64.8822 308.514 64.9956C308.497 65.0347 308.483 65.0758 308.471 65.1188C308.463 65.1579 308.459 65.1931 308.459 65.2244C308.459 65.3026 308.495 65.3417 308.568 65.3417C308.609 65.3417 308.662 65.33 308.727 65.3065C308.84 65.2596 308.958 65.1853 309.079 65.0836C309.205 64.9819 309.323 64.8704 309.432 64.7492C309.542 64.6279 309.631 64.5165 309.7 64.4148C309.736 64.3639 309.769 64.3385 309.797 64.3385C309.813 64.3385 309.821 64.3483 309.821 64.3678C309.821 64.3952 309.805 64.4304 309.773 64.4735C309.704 64.5791 309.611 64.6964 309.493 64.8255C309.379 64.9506 309.258 65.068 309.128 65.1775C308.998 65.2831 308.873 65.3613 308.751 65.4121C308.637 65.4591 308.54 65.4825 308.459 65.4825ZM308.063 63.746C308.068 63.7303 308.07 63.7029 308.07 63.6638C308.07 63.6325 308.068 63.5993 308.063 63.5641C308.063 63.525 308.063 63.4859 308.063 63.4468C308.063 63.2825 308.041 63.2043 307.997 63.2121C307.98 63.216 307.966 63.2356 307.954 63.2708C307.942 63.306 307.936 63.347 307.936 63.394C307.936 63.4604 307.946 63.5289 307.966 63.5993C307.99 63.6697 308.023 63.7186 308.063 63.746Z" fill="black"/>
<path d="M310.791 63.5406C310.73 63.5406 310.684 63.5211 310.651 63.482C310.619 63.4428 310.603 63.3979 310.603 63.347C310.603 63.2923 310.623 63.2473 310.663 63.2121C310.708 63.1769 310.755 63.1593 310.803 63.1593C310.864 63.1593 310.913 63.1788 310.949 63.218C310.986 63.2532 311.004 63.2962 311.004 63.347C311.004 63.3979 310.982 63.4428 310.937 63.482C310.893 63.5211 310.844 63.5406 310.791 63.5406ZM310.499 65.5412C310.361 65.5412 310.252 65.4923 310.171 65.3945C310.09 65.2929 310.049 65.1657 310.049 65.0132C310.049 64.9037 310.069 64.7922 310.11 64.6788C310.13 64.6162 310.154 64.5439 310.183 64.4617C310.211 64.3757 310.238 64.3014 310.262 64.2388C310.209 64.3131 310.154 64.3874 310.098 64.4617C310.045 64.536 309.986 64.6084 309.921 64.6788C309.885 64.7179 309.85 64.7375 309.818 64.7375C309.802 64.7375 309.794 64.7296 309.794 64.714C309.794 64.6983 309.804 64.6788 309.824 64.6553C309.966 64.4793 310.083 64.317 310.177 64.1684C310.274 64.0198 310.347 63.9083 310.396 63.834C310.428 63.7792 310.481 63.746 310.554 63.7342C310.627 63.7225 310.69 63.7186 310.742 63.7225C310.759 63.7225 310.777 63.7245 310.797 63.7284C310.818 63.7284 310.848 63.7284 310.888 63.7284C310.864 63.7753 310.826 63.8555 310.773 63.9689C310.724 64.0784 310.674 64.1977 310.621 64.3268C310.568 64.4519 310.521 64.5634 310.481 64.6612C310.444 64.7472 310.414 64.8333 310.39 64.9193C310.369 65.0054 310.359 65.0836 310.359 65.154C310.359 65.2283 310.373 65.2889 310.402 65.3359C310.43 65.3828 310.475 65.4063 310.536 65.4063C310.617 65.4063 310.71 65.375 310.815 65.3124C310.921 65.2498 311.026 65.1716 311.132 65.0777C311.241 64.9839 311.341 64.888 311.43 64.7903C311.523 64.6886 311.596 64.5986 311.649 64.5204C311.665 64.4969 311.683 64.4852 311.704 64.4852C311.724 64.4852 311.734 64.5008 311.734 64.5321C311.734 64.5556 311.726 64.5771 311.71 64.5967C311.499 64.8744 311.294 65.1012 311.095 65.2772C310.901 65.4532 310.702 65.5412 310.499 65.5412Z" fill="black"/>
<path d="M312.496 65.4884C312.354 65.4962 312.238 65.4728 312.149 65.418C312.064 65.3593 312.001 65.2831 311.96 65.1892C311.924 65.0914 311.906 64.9897 311.906 64.8841C311.906 64.8255 311.912 64.7668 311.924 64.7081C311.936 64.6495 311.95 64.5947 311.967 64.5439C312.011 64.4187 312.072 64.3033 312.149 64.1977C312.226 64.0921 312.309 64.0022 312.398 63.9278C312.484 63.8574 312.577 63.8027 312.678 63.7636C312.784 63.7205 312.881 63.699 312.97 63.699C313.059 63.699 313.135 63.7225 313.195 63.7694C313.256 63.8125 313.287 63.8848 313.287 63.9865C313.287 64.0413 313.274 64.1097 313.25 64.1918C313.205 64.3287 313.11 64.45 312.964 64.5556C312.822 64.6612 312.668 64.714 312.502 64.714C312.453 64.714 312.4 64.7081 312.344 64.6964C312.315 64.7942 312.301 64.8939 312.301 64.9956C312.301 65.1012 312.323 65.1892 312.368 65.2596C312.417 65.3261 312.494 65.3593 312.599 65.3593C312.721 65.3593 312.855 65.3202 313.001 65.242C313.147 65.1599 313.293 65.0504 313.439 64.9135C313.589 64.7766 313.725 64.6201 313.846 64.4441C313.862 64.4167 313.881 64.403 313.901 64.403C313.921 64.403 313.931 64.4187 313.931 64.45C313.931 64.4813 313.921 64.5087 313.901 64.5321C313.791 64.6768 313.666 64.8215 313.524 64.9663C313.382 65.1071 313.226 65.2264 313.055 65.3241C312.885 65.4219 312.699 65.4767 312.496 65.4884ZM312.459 64.6143C312.528 64.6143 312.603 64.5888 312.684 64.538C312.765 64.4871 312.841 64.4265 312.909 64.3561C312.982 64.2857 313.033 64.2212 313.062 64.1625C313.106 64.0765 313.128 64.0041 313.128 63.9454C313.128 63.8907 313.112 63.8535 313.08 63.834C313.051 63.8144 313.029 63.8046 313.013 63.8046C312.972 63.8046 312.916 63.8261 312.843 63.8692C312.774 63.9122 312.705 63.9806 312.636 64.0745C312.571 64.1566 312.514 64.2446 312.465 64.3385C312.417 64.4324 312.386 64.5184 312.374 64.5967C312.398 64.6084 312.427 64.6143 312.459 64.6143Z" fill="black"/>
<path d="M313.839 65.5353C313.94 65.3202 314.041 65.0992 314.143 64.8724C314.244 64.6455 314.337 64.4343 314.423 64.2388C314.37 64.3131 314.315 64.3874 314.258 64.4617C314.206 64.536 314.147 64.6084 314.082 64.6788C314.046 64.7179 314.013 64.7375 313.985 64.7375C313.968 64.7375 313.96 64.7296 313.96 64.714C313.96 64.7023 313.97 64.6847 313.991 64.6612C314.133 64.4852 314.25 64.3229 314.344 64.1742C314.437 64.0217 314.508 63.9083 314.556 63.834C314.589 63.7792 314.629 63.7499 314.678 63.746C314.731 63.7381 314.775 63.7342 314.812 63.7342C314.828 63.7342 314.857 63.7362 314.897 63.7401C314.938 63.7401 314.978 63.7401 315.019 63.7401C315.003 63.7714 314.97 63.8261 314.921 63.9044C314.877 63.9826 314.828 64.0647 314.775 64.1508C314.727 64.2368 314.686 64.315 314.654 64.3854C314.711 64.319 314.79 64.2251 314.891 64.1038C314.996 63.9787 315.118 63.875 315.256 63.7929C315.386 63.7186 315.503 63.6814 315.609 63.6814C315.783 63.6814 315.87 63.7694 315.87 63.9454C315.87 63.9924 315.862 64.0452 315.846 64.1038C315.83 64.1625 315.804 64.2251 315.767 64.2916C315.69 64.4363 315.607 64.5888 315.518 64.7492C315.432 64.9056 315.37 65.0523 315.329 65.1892C315.325 65.2048 315.321 65.2185 315.317 65.2303C315.317 65.242 315.317 65.2537 315.317 65.2655C315.317 65.3359 315.353 65.3711 315.426 65.3711C315.467 65.3711 315.514 65.3593 315.566 65.3359C315.68 65.2889 315.801 65.2146 315.931 65.1129C316.061 65.0112 316.183 64.8998 316.296 64.7785C316.414 64.6573 316.507 64.5458 316.576 64.4441C316.6 64.405 316.625 64.3854 316.649 64.3854C316.669 64.3854 316.679 64.3952 316.679 64.4148C316.679 64.4383 316.671 64.4598 316.655 64.4793C316.582 64.5849 316.487 64.7042 316.369 64.8372C316.256 64.9663 316.132 65.0875 315.998 65.2009C315.868 65.3105 315.743 65.3906 315.621 65.4415C315.536 65.4728 315.455 65.4884 315.378 65.4884C315.272 65.4884 315.179 65.463 315.098 65.4121C315.021 65.3574 314.982 65.2772 314.982 65.1716C314.982 65.156 314.982 65.1403 314.982 65.1247C314.986 65.1051 314.99 65.0875 314.994 65.0719C315.027 64.9272 315.092 64.7785 315.189 64.626C315.286 64.4695 315.376 64.319 315.457 64.1742C315.501 64.0882 315.524 64.0217 315.524 63.9748C315.524 63.9122 315.491 63.8809 315.426 63.8809C315.398 63.8809 315.366 63.8868 315.329 63.8985C315.293 63.9102 315.254 63.9317 315.213 63.963C315.128 64.0178 315.039 64.1019 314.946 64.2153C314.853 64.3248 314.757 64.4598 314.66 64.6201C314.571 64.7727 314.488 64.9252 314.41 65.0777C314.333 65.2303 314.271 65.3574 314.222 65.4591C314.161 65.4591 314.09 65.4689 314.009 65.4884C313.932 65.508 313.875 65.5236 313.839 65.5353Z" fill="black"/>
<path d="M317.144 65.5001C317.011 65.5001 316.899 65.461 316.81 65.3828C316.721 65.3007 316.676 65.1951 316.676 65.066C316.676 64.9995 316.688 64.9311 316.713 64.8607C316.794 64.6455 316.889 64.4226 316.998 64.1918C317.108 63.9572 317.226 63.7284 317.351 63.5054H317.144C317.055 63.5054 317.011 63.4878 317.011 63.4526C317.011 63.4331 317.023 63.4174 317.047 63.4057C317.076 63.39 317.108 63.3822 317.144 63.3822C317.185 63.3783 317.228 63.3783 317.272 63.3822C317.317 63.3822 317.365 63.3822 317.418 63.3822L317.941 62.4553C317.958 62.424 317.994 62.4044 318.051 62.3966C318.112 62.3849 318.156 62.379 318.185 62.379C318.229 62.379 318.272 62.3888 318.312 62.4083C318.357 62.4279 318.371 62.4494 318.355 62.4729C318.343 62.4885 318.316 62.5315 318.276 62.6019C318.239 62.6723 318.195 62.7545 318.142 62.8483C318.089 62.9422 318.035 63.038 317.978 63.1358C317.925 63.2297 317.878 63.3118 317.838 63.3822H318.099C318.201 63.3822 318.308 63.3822 318.422 63.3822C318.539 63.3783 318.645 63.3724 318.738 63.3646C318.831 63.3568 318.892 63.347 318.921 63.3353C318.945 63.3236 318.969 63.3177 318.994 63.3177C319.034 63.3177 319.055 63.3333 319.055 63.3646C319.055 63.3998 319.026 63.4331 318.969 63.4644C318.929 63.4839 318.85 63.4976 318.732 63.5054C318.615 63.5093 318.479 63.5113 318.325 63.5113H318.118C318.065 63.5113 318.008 63.5113 317.947 63.5113C317.887 63.5074 317.828 63.5054 317.771 63.5054C317.637 63.744 317.499 63.9806 317.357 64.2153C317.219 64.4461 317.108 64.6925 317.023 64.9545C316.998 65.0288 316.986 65.0953 316.986 65.154C316.986 65.2948 317.051 65.3652 317.181 65.3652C317.246 65.3652 317.327 65.3417 317.424 65.2948C317.603 65.2088 317.777 65.0856 317.947 64.9252C318.118 64.7648 318.266 64.5986 318.391 64.4265C318.412 64.3952 318.434 64.3796 318.458 64.3796C318.475 64.3796 318.483 64.3894 318.483 64.4089C318.483 64.4285 318.475 64.4519 318.458 64.4793C318.329 64.6671 318.185 64.8391 318.026 64.9956C317.872 65.152 317.696 65.287 317.497 65.4004C317.372 65.4669 317.254 65.5001 317.144 65.5001Z" fill="black"/>
<path d="M320.047 65.4767C319.933 65.4767 319.852 65.4337 319.803 65.3476C319.755 65.2616 319.73 65.1618 319.73 65.0484C319.73 65.0288 319.73 65.0073 319.73 64.9839C319.73 64.9604 319.732 64.9389 319.736 64.9193C319.659 65.0523 319.56 65.1775 319.438 65.2948C319.317 65.4121 319.167 65.4708 318.988 65.4708C318.867 65.4708 318.763 65.4278 318.678 65.3417C318.597 65.2557 318.556 65.1247 318.556 64.9487C318.556 64.8079 318.597 64.6319 318.678 64.4207C318.723 64.319 318.787 64.2153 318.873 64.1097C318.958 64.0041 319.061 63.9161 319.183 63.8457C319.305 63.7714 319.44 63.7342 319.59 63.7342C319.753 63.7342 319.866 63.7636 319.931 63.8222C319.996 63.8809 320.036 63.9259 320.053 63.9572C320.053 63.9611 320.053 63.965 320.053 63.9689C320.057 63.9689 320.059 63.9709 320.059 63.9748C320.059 64.01 320.036 64.0276 319.992 64.0276C319.972 64.0276 319.951 64.0178 319.931 63.9982C319.882 63.9435 319.834 63.9044 319.785 63.8809C319.736 63.8574 319.69 63.8457 319.645 63.8457C319.552 63.8457 319.465 63.8848 319.384 63.963C319.302 64.0374 319.229 64.1273 319.165 64.2329C319.104 64.3346 319.053 64.4304 319.013 64.5204C318.956 64.6455 318.913 64.759 318.885 64.8607C318.86 64.9584 318.848 65.0406 318.848 65.1071C318.848 65.2831 318.911 65.3711 319.037 65.3711C319.126 65.3711 319.232 65.3163 319.353 65.2068C319.475 65.0973 319.59 64.935 319.7 64.7199C319.797 64.5321 319.884 64.3659 319.961 64.2212C320.039 64.0726 320.105 63.9435 320.162 63.834C320.174 63.8066 320.205 63.787 320.253 63.7753C320.302 63.7597 320.351 63.7518 320.399 63.7518C320.444 63.7518 320.485 63.7597 320.521 63.7753C320.558 63.787 320.576 63.8085 320.576 63.8398C320.576 63.8555 320.566 63.877 320.545 63.9044C320.497 63.9709 320.434 64.0686 320.357 64.1977C320.284 64.3268 320.215 64.4617 320.15 64.6025C320.089 64.7433 320.049 64.8685 320.028 64.978C320.016 65.0367 320.01 65.0895 320.01 65.1364C320.01 65.2616 320.055 65.3241 320.144 65.3241C320.172 65.3241 320.217 65.3144 320.278 65.2948C320.391 65.2479 320.507 65.1755 320.625 65.0777C320.746 64.976 320.86 64.8646 320.965 64.7433C321.075 64.6221 321.166 64.5087 321.239 64.403C321.275 64.3522 321.304 64.3268 321.324 64.3268C321.336 64.3268 321.342 64.3366 321.342 64.3561C321.342 64.3874 321.326 64.4265 321.294 64.4735C321.221 64.5791 321.127 64.6964 321.014 64.8255C320.904 64.9545 320.785 65.0738 320.655 65.1833C320.529 65.2929 320.406 65.373 320.284 65.4239C320.195 65.4591 320.116 65.4767 320.047 65.4767Z" fill="black"/>
<path d="M321.835 65.5412C321.71 65.5412 321.6 65.506 321.507 65.4356C321.414 65.3652 321.367 65.2518 321.367 65.0953C321.367 64.9897 321.391 64.8509 321.44 64.6788C321.489 64.5067 321.57 64.2916 321.683 64.0334C321.805 63.7479 321.943 63.4644 322.097 63.1828C322.251 62.8972 322.423 62.6371 322.614 62.4025C322.691 62.3086 322.778 62.2382 322.876 62.1913C322.973 62.1404 323.062 62.115 323.143 62.115C323.22 62.115 323.283 62.1345 323.332 62.1737C323.38 62.2128 323.405 62.2734 323.405 62.3555C323.405 62.3986 323.395 62.4514 323.374 62.5139C323.354 62.5726 323.322 62.641 323.277 62.7193C323.18 62.8875 323.028 63.0928 322.821 63.3353C322.618 63.5739 322.33 63.8496 321.957 64.1625C321.892 64.3229 321.827 64.4735 321.762 64.6143C321.701 64.7511 321.663 64.8724 321.647 64.978C321.643 64.9976 321.639 65.0171 321.635 65.0367C321.635 65.0562 321.635 65.0758 321.635 65.0953C321.635 65.2048 321.661 65.2831 321.714 65.33C321.77 65.373 321.837 65.3945 321.914 65.3945C321.983 65.3945 322.056 65.3789 322.133 65.3476C322.214 65.3163 322.285 65.2792 322.346 65.2361C322.476 65.1423 322.604 65.0249 322.73 64.8841C322.859 64.7394 322.977 64.5927 323.082 64.4441C323.094 64.4246 323.109 64.4148 323.125 64.4148C323.149 64.4148 323.161 64.4304 323.161 64.4617C323.161 64.4774 323.155 64.495 323.143 64.5145C323.03 64.6827 322.904 64.8411 322.766 64.9897C322.632 65.1384 322.494 65.2655 322.352 65.3711C322.279 65.4258 322.196 65.4669 322.103 65.4943C322.014 65.5256 321.925 65.5412 321.835 65.5412ZM322.066 63.9044C322.302 63.7088 322.5 63.5191 322.663 63.3353C322.825 63.1476 322.959 62.9696 323.064 62.8014C323.133 62.6958 323.18 62.6078 323.204 62.5374C323.232 62.467 323.247 62.4142 323.247 62.379C323.247 62.336 323.23 62.3145 323.198 62.3145C323.121 62.3145 323.013 62.4044 322.876 62.5843C322.713 62.8034 322.567 63.0185 322.438 63.2297C322.312 63.437 322.188 63.6619 322.066 63.9044Z" fill="black"/>
<path d="M325.797 65.4825C325.695 65.4825 325.618 65.4532 325.566 65.3945C325.513 65.332 325.487 65.2518 325.487 65.154C325.487 65.111 325.491 65.064 325.499 65.0132C325.511 64.9584 325.529 64.9056 325.553 64.8548C325.598 64.7531 325.649 64.6573 325.706 64.5673C325.766 64.4735 325.821 64.3718 325.87 64.2622C325.898 64.2036 325.912 64.1508 325.912 64.1038C325.912 64.0452 325.888 64.0061 325.839 63.9865C325.791 63.963 325.732 63.9493 325.663 63.9454C325.594 63.9376 325.529 63.9278 325.468 63.9161C325.403 64.096 325.326 64.2564 325.237 64.3972C325.152 64.538 325.045 64.6788 324.915 64.8196C324.87 64.8626 324.838 64.8841 324.817 64.8841C324.801 64.8841 324.793 64.8763 324.793 64.8607C324.793 64.8333 324.815 64.7961 324.86 64.7492C324.949 64.6514 325.028 64.5478 325.097 64.4383C325.17 64.3248 325.229 64.2192 325.274 64.1214C325.322 64.0237 325.353 63.9513 325.365 63.9044C325.276 63.8692 325.205 63.8027 325.152 63.7049C325.099 63.6032 325.073 63.5035 325.073 63.4057C325.073 63.2884 325.103 63.1925 325.164 63.1182C325.225 63.04 325.288 63.0009 325.353 63.0009C325.41 63.0009 325.46 63.0322 325.505 63.0947C325.549 63.1573 325.572 63.2629 325.572 63.4116C325.572 63.4741 325.564 63.5387 325.547 63.6052C325.531 63.6677 325.517 63.7205 325.505 63.7636C325.553 63.7714 325.61 63.7773 325.675 63.7812C325.74 63.7812 325.795 63.7831 325.839 63.787C325.892 63.787 325.943 63.789 325.991 63.7929C326.044 63.7968 326.091 63.8046 326.131 63.8164C326.241 63.8477 326.296 63.9122 326.296 64.01C326.296 64.096 326.261 64.2036 326.192 64.3326C326.139 64.4422 326.081 64.5517 326.016 64.6612C325.951 64.7707 325.896 64.8822 325.852 64.9956C325.835 65.0347 325.821 65.0758 325.809 65.1188C325.801 65.1579 325.797 65.1931 325.797 65.2244C325.797 65.3026 325.833 65.3417 325.906 65.3417C325.947 65.3417 326 65.33 326.064 65.3065C326.178 65.2596 326.296 65.1853 326.417 65.0836C326.543 64.9819 326.661 64.8704 326.77 64.7492C326.88 64.6279 326.969 64.5165 327.038 64.4148C327.074 64.3639 327.107 64.3385 327.135 64.3385C327.151 64.3385 327.159 64.3483 327.159 64.3678C327.159 64.3952 327.143 64.4304 327.111 64.4735C327.042 64.5791 326.949 64.6964 326.831 64.8255C326.717 64.9506 326.596 65.068 326.466 65.1775C326.336 65.2831 326.21 65.3613 326.089 65.4121C325.975 65.4591 325.878 65.4825 325.797 65.4825ZM325.401 63.746C325.405 63.7303 325.407 63.7029 325.407 63.6638C325.407 63.6325 325.405 63.5993 325.401 63.5641C325.401 63.525 325.401 63.4859 325.401 63.4468C325.401 63.2825 325.379 63.2043 325.334 63.2121C325.318 63.216 325.304 63.2356 325.292 63.2708C325.28 63.306 325.274 63.347 325.274 63.394C325.274 63.4604 325.284 63.5289 325.304 63.5993C325.328 63.6697 325.361 63.7186 325.401 63.746Z" fill="black"/>
<path d="M327.813 65.4884C327.671 65.4962 327.555 65.4728 327.466 65.418C327.381 65.3593 327.318 65.2831 327.277 65.1892C327.241 65.0914 327.223 64.9897 327.223 64.8841C327.223 64.8255 327.229 64.7668 327.241 64.7081C327.253 64.6495 327.267 64.5947 327.284 64.5439C327.328 64.4187 327.389 64.3033 327.466 64.1977C327.543 64.0921 327.626 64.0022 327.715 63.9278C327.801 63.8574 327.894 63.8027 327.995 63.7636C328.101 63.7205 328.198 63.699 328.287 63.699C328.376 63.699 328.451 63.7225 328.512 63.7694C328.573 63.8125 328.604 63.8848 328.604 63.9865C328.604 64.0413 328.591 64.1097 328.567 64.1918C328.522 64.3287 328.427 64.45 328.281 64.5556C328.139 64.6612 327.985 64.714 327.819 64.714C327.77 64.714 327.717 64.7081 327.661 64.6964C327.632 64.7942 327.618 64.8939 327.618 64.9956C327.618 65.1012 327.64 65.1892 327.685 65.2596C327.734 65.3261 327.811 65.3593 327.916 65.3593C328.038 65.3593 328.172 65.3202 328.318 65.242C328.464 65.1599 328.61 65.0504 328.756 64.9135C328.906 64.7766 329.042 64.6201 329.163 64.4441C329.179 64.4167 329.198 64.403 329.218 64.403C329.238 64.403 329.248 64.4187 329.248 64.45C329.248 64.4813 329.238 64.5087 329.218 64.5321C329.108 64.6768 328.983 64.8215 328.841 64.9663C328.699 65.1071 328.543 65.2264 328.372 65.3241C328.202 65.4219 328.016 65.4767 327.813 65.4884ZM327.776 64.6143C327.845 64.6143 327.92 64.5888 328.001 64.538C328.082 64.4871 328.157 64.4265 328.226 64.3561C328.299 64.2857 328.35 64.2212 328.378 64.1625C328.423 64.0765 328.445 64.0041 328.445 63.9454C328.445 63.8907 328.429 63.8535 328.397 63.834C328.368 63.8144 328.346 63.8046 328.33 63.8046C328.289 63.8046 328.232 63.8261 328.159 63.8692C328.091 63.9122 328.022 63.9806 327.953 64.0745C327.888 64.1566 327.831 64.2446 327.782 64.3385C327.734 64.4324 327.703 64.5184 327.691 64.5967C327.715 64.6084 327.744 64.6143 327.776 64.6143Z" fill="black"/>
<path d="M329.448 65.6057C329.273 65.6057 329.146 65.5725 329.064 65.506C328.983 65.4395 328.943 65.3691 328.943 65.2948C328.943 65.2322 328.969 65.1794 329.022 65.1364C329.07 65.0895 329.141 65.0699 329.235 65.0777C329.373 65.0856 329.513 65.1051 329.654 65.1364C329.796 65.1638 329.934 65.1736 330.068 65.1657C330.105 65.1032 330.135 65.0328 330.159 64.9545C330.184 64.8763 330.196 64.8 330.196 64.7257C330.196 64.6397 330.174 64.5536 330.129 64.4676C330.088 64.3815 330.04 64.3033 329.983 64.2329C329.93 64.1586 329.884 64.0999 329.843 64.0569C329.762 64.1938 329.673 64.3268 329.575 64.4559C329.482 64.5849 329.381 64.7101 329.271 64.8313C329.231 64.8744 329.196 64.8959 329.168 64.8959C329.152 64.8959 329.143 64.888 329.143 64.8724C329.143 64.8568 329.166 64.8235 329.21 64.7727C329.328 64.6397 329.437 64.4969 329.539 64.3444C329.64 64.1918 329.717 64.0726 329.77 63.9865C329.742 63.9552 329.715 63.9044 329.691 63.834C329.667 63.7597 329.654 63.6853 329.654 63.611C329.654 63.4976 329.679 63.39 329.727 63.2884C329.776 63.1867 329.849 63.1358 329.946 63.1358C330.003 63.1358 330.05 63.1515 330.086 63.1828C330.123 63.2101 330.141 63.2668 330.141 63.3529C330.141 63.3803 330.139 63.4096 330.135 63.4409C330.131 63.4722 330.125 63.5074 330.117 63.5465C330.101 63.5973 330.074 63.658 330.038 63.7284C330.001 63.7988 329.973 63.8496 329.953 63.8809C330.038 63.9787 330.125 64.0667 330.214 64.1449C330.303 64.2192 330.378 64.3033 330.439 64.3972C330.5 64.4911 330.53 64.6143 330.53 64.7668C330.53 64.8176 330.522 64.8763 330.506 64.9428C330.49 65.0054 330.47 65.0621 330.445 65.1129C330.551 65.0973 330.67 65.0386 330.804 64.9369C330.942 64.8313 331.076 64.6847 331.206 64.4969C331.234 64.4539 331.264 64.4324 331.297 64.4324C331.317 64.4324 331.327 64.4422 331.327 64.4617C331.327 64.4735 331.321 64.4891 331.309 64.5087C331.159 64.7238 331.005 64.8978 330.847 65.0308C330.693 65.1599 330.532 65.2361 330.366 65.2596C330.273 65.3809 330.143 65.4689 329.977 65.5236C329.815 65.5784 329.638 65.6057 329.448 65.6057ZM329.886 63.7988C329.898 63.7675 329.914 63.7303 329.934 63.6873C329.959 63.6404 329.979 63.5856 329.995 63.523C330.007 63.4761 330.013 63.4331 330.013 63.394C330.013 63.304 329.995 63.259 329.959 63.259C329.938 63.259 329.912 63.2805 329.88 63.3236C329.847 63.3666 329.831 63.4311 329.831 63.5172C329.831 63.568 329.835 63.6208 329.843 63.6756C329.855 63.7303 329.869 63.7714 329.886 63.7988ZM329.466 65.4884C329.575 65.4884 329.673 65.4689 329.758 65.4297C329.847 65.3867 329.924 65.3339 329.989 65.2713C329.884 65.2713 329.784 65.2655 329.691 65.2537C329.598 65.242 329.498 65.2342 329.393 65.2303C329.332 65.2264 329.285 65.2361 329.253 65.2596C329.225 65.2792 329.21 65.3046 329.21 65.3359C329.21 65.3711 329.231 65.4063 329.271 65.4415C329.316 65.4728 329.381 65.4884 329.466 65.4884Z" fill="black"/>
<path d="M331.808 65.5001C331.674 65.5001 331.563 65.461 331.473 65.3828C331.384 65.3007 331.34 65.1951 331.34 65.066C331.34 64.9995 331.352 64.9311 331.376 64.8607C331.457 64.6455 331.552 64.4226 331.662 64.1918C331.771 63.9572 331.889 63.7284 332.015 63.5054H331.808C331.719 63.5054 331.674 63.4878 331.674 63.4526C331.674 63.4331 331.686 63.4174 331.711 63.4057C331.739 63.39 331.771 63.3822 331.808 63.3822C331.849 63.3783 331.891 63.3783 331.936 63.3822C331.98 63.3822 332.029 63.3822 332.082 63.3822L332.605 62.4553C332.621 62.424 332.658 62.4044 332.714 62.3966C332.775 62.3849 332.82 62.379 332.848 62.379C332.893 62.379 332.935 62.3888 332.976 62.4083C333.021 62.4279 333.035 62.4494 333.018 62.4729C333.006 62.4885 332.98 62.5315 332.939 62.6019C332.903 62.6723 332.858 62.7545 332.806 62.8483C332.753 62.9422 332.698 63.038 332.641 63.1358C332.589 63.2297 332.542 63.3118 332.501 63.3822H332.763C332.864 63.3822 332.972 63.3822 333.085 63.3822C333.203 63.3783 333.308 63.3724 333.402 63.3646C333.495 63.3568 333.556 63.347 333.584 63.3353C333.609 63.3236 333.633 63.3177 333.657 63.3177C333.698 63.3177 333.718 63.3333 333.718 63.3646C333.718 63.3998 333.69 63.4331 333.633 63.4644C333.592 63.4839 333.513 63.4976 333.396 63.5054C333.278 63.5093 333.142 63.5113 332.988 63.5113H332.781C332.729 63.5113 332.672 63.5113 332.611 63.5113C332.55 63.5074 332.491 63.5054 332.435 63.5054C332.301 63.744 332.163 63.9806 332.021 64.2153C331.883 64.4461 331.771 64.6925 331.686 64.9545C331.662 65.0288 331.65 65.0953 331.65 65.154C331.65 65.2948 331.715 65.3652 331.844 65.3652C331.909 65.3652 331.99 65.3417 332.088 65.2948C332.266 65.2088 332.441 65.0856 332.611 64.9252C332.781 64.7648 332.929 64.5986 333.055 64.4265C333.075 64.3952 333.098 64.3796 333.122 64.3796C333.138 64.3796 333.146 64.3894 333.146 64.4089C333.146 64.4285 333.138 64.4519 333.122 64.4793C332.992 64.6671 332.848 64.8391 332.69 64.9956C332.536 65.152 332.359 65.287 332.161 65.4004C332.035 65.4669 331.917 65.5001 331.808 65.5001Z" fill="black"/>
<path d="M334.71 65.4767C334.597 65.4767 334.515 65.4337 334.467 65.3476C334.418 65.2616 334.394 65.1618 334.394 65.0484C334.394 65.0288 334.394 65.0073 334.394 64.9839C334.394 64.9604 334.396 64.9389 334.4 64.9193C334.323 65.0523 334.224 65.1775 334.102 65.2948C333.98 65.4121 333.83 65.4708 333.652 65.4708C333.53 65.4708 333.427 65.4278 333.341 65.3417C333.26 65.2557 333.22 65.1247 333.22 64.9487C333.22 64.8079 333.26 64.6319 333.341 64.4207C333.386 64.319 333.451 64.2153 333.536 64.1097C333.621 64.0041 333.725 63.9161 333.846 63.8457C333.968 63.7714 334.104 63.7342 334.254 63.7342C334.416 63.7342 334.53 63.7636 334.595 63.8222C334.659 63.8809 334.7 63.9259 334.716 63.9572C334.716 63.9611 334.716 63.965 334.716 63.9689C334.72 63.9689 334.722 63.9709 334.722 63.9748C334.722 64.01 334.7 64.0276 334.655 64.0276C334.635 64.0276 334.615 64.0178 334.595 63.9982C334.546 63.9435 334.497 63.9044 334.449 63.8809C334.4 63.8574 334.353 63.8457 334.309 63.8457C334.215 63.8457 334.128 63.8848 334.047 63.963C333.966 64.0374 333.893 64.1273 333.828 64.2329C333.767 64.3346 333.717 64.4304 333.676 64.5204C333.619 64.6455 333.577 64.759 333.548 64.8607C333.524 64.9584 333.512 65.0406 333.512 65.1071C333.512 65.2831 333.575 65.3711 333.7 65.3711C333.79 65.3711 333.895 65.3163 334.017 65.2068C334.138 65.0973 334.254 64.935 334.363 64.7199C334.461 64.5321 334.548 64.3659 334.625 64.2212C334.702 64.0726 334.769 63.9435 334.826 63.834C334.838 63.8066 334.868 63.787 334.917 63.7753C334.966 63.7597 335.014 63.7518 335.063 63.7518C335.108 63.7518 335.148 63.7597 335.185 63.7753C335.221 63.787 335.239 63.8085 335.239 63.8398C335.239 63.8555 335.229 63.877 335.209 63.9044C335.16 63.9709 335.097 64.0686 335.02 64.1977C334.947 64.3268 334.878 64.4617 334.814 64.6025C334.753 64.7433 334.712 64.8685 334.692 64.978C334.68 65.0367 334.674 65.0895 334.674 65.1364C334.674 65.2616 334.718 65.3241 334.807 65.3241C334.836 65.3241 334.88 65.3144 334.941 65.2948C335.055 65.2479 335.17 65.1755 335.288 65.0777C335.41 64.976 335.523 64.8646 335.629 64.7433C335.738 64.6221 335.829 64.5087 335.902 64.403C335.939 64.3522 335.967 64.3268 335.988 64.3268C336 64.3268 336.006 64.3366 336.006 64.3561C336.006 64.3874 335.99 64.4265 335.957 64.4735C335.884 64.5791 335.791 64.6964 335.677 64.8255C335.568 64.9545 335.448 65.0738 335.318 65.1833C335.193 65.2929 335.069 65.373 334.947 65.4239C334.858 65.4591 334.779 65.4767 334.71 65.4767Z" fill="black"/>
<path d="M336.535 65.4767C336.41 65.4767 336.32 65.4415 336.268 65.3711C336.219 65.2968 336.195 65.2068 336.195 65.1012C336.195 64.9995 336.209 64.8939 336.237 64.7844C336.27 64.671 336.306 64.5654 336.347 64.4676C336.387 64.3698 336.42 64.2935 336.444 64.2388C336.391 64.3131 336.337 64.3874 336.28 64.4617C336.227 64.536 336.168 64.6084 336.103 64.6788C336.067 64.7179 336.032 64.7375 336 64.7375C335.984 64.7375 335.976 64.7296 335.976 64.714C335.976 64.6983 335.986 64.6788 336.006 64.6553C336.148 64.4793 336.266 64.317 336.359 64.1684C336.456 64.0198 336.529 63.9083 336.578 63.834C336.61 63.7792 336.663 63.746 336.736 63.7342C336.809 63.7225 336.872 63.7186 336.925 63.7225C336.941 63.7225 336.959 63.7245 336.979 63.7284C337 63.7284 337.03 63.7284 337.071 63.7284C336.985 63.8692 336.91 64.0217 336.846 64.186C336.781 64.3502 336.712 64.5067 336.639 64.6553C336.578 64.7766 336.533 64.8822 336.505 64.9721C336.476 65.0621 336.462 65.1364 336.462 65.1951C336.462 65.3007 336.501 65.3535 336.578 65.3535C336.639 65.3535 336.716 65.3065 336.809 65.2127C336.902 65.1149 336.998 64.9936 337.095 64.8489C337.192 64.7042 337.273 64.5575 337.338 64.4089C337.387 64.3072 337.434 64.2036 337.478 64.098C337.527 63.9924 337.565 63.9044 337.594 63.834C337.61 63.8066 337.649 63.787 337.709 63.7753C337.774 63.7597 337.845 63.7499 337.922 63.746C338.003 63.7421 338.076 63.7401 338.141 63.7401C338.089 63.787 338.028 63.8672 337.959 63.9806C337.894 64.0902 337.829 64.2153 337.764 64.3561C337.703 64.4969 337.653 64.6358 337.612 64.7727C337.571 64.9096 337.551 65.0269 337.551 65.1247C337.551 65.1403 337.551 65.156 337.551 65.1716C337.555 65.1872 337.559 65.2029 337.563 65.2185C337.584 65.2889 337.632 65.3241 337.709 65.3241C337.73 65.3241 337.75 65.3222 337.77 65.3183C337.794 65.3144 337.821 65.3065 337.849 65.2948C337.963 65.2479 338.08 65.1775 338.202 65.0836C338.324 64.9897 338.439 64.8841 338.549 64.7668C338.658 64.6495 338.75 64.538 338.823 64.4324C338.859 64.3815 338.889 64.3561 338.914 64.3561C338.926 64.3561 338.932 64.3639 338.932 64.3796C338.932 64.4109 338.916 64.45 338.883 64.4969C338.81 64.6025 338.719 64.7179 338.61 64.8431C338.504 64.9682 338.389 65.0836 338.263 65.1892C338.141 65.2948 338.02 65.373 337.898 65.4239C337.809 65.4591 337.726 65.4767 337.649 65.4767C337.494 65.4767 337.377 65.418 337.296 65.3007C337.219 65.1794 337.188 65.0504 337.204 64.9135C337.111 65.066 337.008 65.199 336.894 65.3124C336.785 65.4219 336.665 65.4767 336.535 65.4767Z" fill="black"/>
<path d="M339.806 65.4825C339.704 65.4825 339.627 65.4532 339.575 65.3945C339.522 65.332 339.495 65.2518 339.495 65.154C339.495 65.111 339.499 65.064 339.508 65.0132C339.52 64.9584 339.538 64.9056 339.562 64.8548C339.607 64.7531 339.658 64.6573 339.714 64.5673C339.775 64.4735 339.83 64.3718 339.879 64.2622C339.907 64.2036 339.921 64.1508 339.921 64.1038C339.921 64.0452 339.897 64.0061 339.848 63.9865C339.8 63.963 339.741 63.9493 339.672 63.9454C339.603 63.9376 339.538 63.9278 339.477 63.9161C339.412 64.096 339.335 64.2564 339.246 64.3972C339.161 64.538 339.053 64.6788 338.924 64.8196C338.879 64.8626 338.847 64.8841 338.826 64.8841C338.81 64.8841 338.802 64.8763 338.802 64.8607C338.802 64.8333 338.824 64.7961 338.869 64.7492C338.958 64.6514 339.037 64.5478 339.106 64.4383C339.179 64.3248 339.238 64.2192 339.283 64.1214C339.331 64.0237 339.362 63.9513 339.374 63.9044C339.285 63.8692 339.214 63.8027 339.161 63.7049C339.108 63.6032 339.082 63.5035 339.082 63.4057C339.082 63.2884 339.112 63.1925 339.173 63.1182C339.234 63.04 339.297 63.0009 339.362 63.0009C339.418 63.0009 339.469 63.0322 339.514 63.0947C339.558 63.1573 339.581 63.2629 339.581 63.4116C339.581 63.4741 339.572 63.5387 339.556 63.6052C339.54 63.6677 339.526 63.7205 339.514 63.7636C339.562 63.7714 339.619 63.7773 339.684 63.7812C339.749 63.7812 339.804 63.7831 339.848 63.787C339.901 63.787 339.952 63.789 340 63.7929C340.053 63.7968 340.1 63.8046 340.14 63.8164C340.25 63.8477 340.304 63.9122 340.304 64.01C340.304 64.096 340.27 64.2036 340.201 64.3326C340.148 64.4422 340.09 64.5517 340.025 64.6612C339.96 64.7707 339.905 64.8822 339.86 64.9956C339.844 65.0347 339.83 65.0758 339.818 65.1188C339.81 65.1579 339.806 65.1931 339.806 65.2244C339.806 65.3026 339.842 65.3417 339.915 65.3417C339.956 65.3417 340.008 65.33 340.073 65.3065C340.187 65.2596 340.304 65.1853 340.426 65.0836C340.552 64.9819 340.669 64.8704 340.779 64.7492C340.888 64.6279 340.978 64.5165 341.047 64.4148C341.083 64.3639 341.116 64.3385 341.144 64.3385C341.16 64.3385 341.168 64.3483 341.168 64.3678C341.168 64.3952 341.152 64.4304 341.12 64.4735C341.051 64.5791 340.957 64.6964 340.84 64.8255C340.726 64.9506 340.605 65.068 340.475 65.1775C340.345 65.2831 340.219 65.3613 340.098 65.4121C339.984 65.4591 339.887 65.4825 339.806 65.4825ZM339.41 63.746C339.414 63.7303 339.416 63.7029 339.416 63.6638C339.416 63.6325 339.414 63.5993 339.41 63.5641C339.41 63.525 339.41 63.4859 339.41 63.4468C339.41 63.2825 339.388 63.2043 339.343 63.2121C339.327 63.216 339.313 63.2356 339.301 63.2708C339.289 63.306 339.283 63.347 339.283 63.394C339.283 63.4604 339.293 63.5289 339.313 63.5993C339.337 63.6697 339.37 63.7186 339.41 63.746Z" fill="black"/>
<path d="M342.704 65.4767C342.59 65.4767 342.509 65.4337 342.46 65.3476C342.412 65.2616 342.387 65.1618 342.387 65.0484C342.387 65.0288 342.387 65.0073 342.387 64.9839C342.387 64.9604 342.389 64.9389 342.393 64.9193C342.316 65.0523 342.217 65.1775 342.095 65.2948C341.974 65.4121 341.824 65.4708 341.645 65.4708C341.524 65.4708 341.42 65.4278 341.335 65.3417C341.254 65.2557 341.213 65.1247 341.213 64.9487C341.213 64.8079 341.254 64.6319 341.335 64.4207C341.38 64.319 341.444 64.2153 341.53 64.1097C341.615 64.0041 341.718 63.9161 341.84 63.8457C341.962 63.7714 342.097 63.7342 342.247 63.7342C342.41 63.7342 342.523 63.7636 342.588 63.8222C342.653 63.8809 342.694 63.9259 342.71 63.9572C342.71 63.9611 342.71 63.965 342.71 63.9689C342.714 63.9689 342.716 63.9709 342.716 63.9748C342.716 64.01 342.694 64.0276 342.649 64.0276C342.629 64.0276 342.608 64.0178 342.588 63.9982C342.539 63.9435 342.491 63.9044 342.442 63.8809C342.393 63.8574 342.347 63.8457 342.302 63.8457C342.209 63.8457 342.122 63.8848 342.041 63.963C341.96 64.0374 341.887 64.1273 341.822 64.2329C341.761 64.3346 341.71 64.4304 341.67 64.5204C341.613 64.6455 341.57 64.759 341.542 64.8607C341.517 64.9584 341.505 65.0406 341.505 65.1071C341.505 65.2831 341.568 65.3711 341.694 65.3711C341.783 65.3711 341.889 65.3163 342.01 65.2068C342.132 65.0973 342.247 64.935 342.357 64.7199C342.454 64.5321 342.541 64.3659 342.619 64.2212C342.696 64.0726 342.762 63.9435 342.819 63.834C342.831 63.8066 342.862 63.787 342.91 63.7753C342.959 63.7597 343.008 63.7518 343.056 63.7518C343.101 63.7518 343.142 63.7597 343.178 63.7753C343.215 63.787 343.233 63.8085 343.233 63.8398C343.233 63.8555 343.223 63.877 343.202 63.9044C343.154 63.9709 343.091 64.0686 343.014 64.1977C342.941 64.3268 342.872 64.4617 342.807 64.6025C342.746 64.7433 342.706 64.8685 342.685 64.978C342.673 65.0367 342.667 65.0895 342.667 65.1364C342.667 65.2616 342.712 65.3241 342.801 65.3241C342.829 65.3241 342.874 65.3144 342.935 65.2948C343.048 65.2479 343.164 65.1755 343.282 65.0777C343.403 64.976 343.517 64.8646 343.622 64.7433C343.732 64.6221 343.823 64.5087 343.896 64.403C343.932 64.3522 343.961 64.3268 343.981 64.3268C343.993 64.3268 343.999 64.3366 343.999 64.3561C343.999 64.3874 343.983 64.4265 343.951 64.4735C343.878 64.5791 343.784 64.6964 343.671 64.8255C343.561 64.9545 343.442 65.0738 343.312 65.1833C343.186 65.2929 343.063 65.373 342.941 65.4239C342.852 65.4591 342.773 65.4767 342.704 65.4767Z" fill="black"/>
<path d="M343.854 65.5353C343.955 65.3202 344.056 65.0992 344.158 64.8724C344.259 64.6455 344.352 64.4343 344.438 64.2388C344.385 64.3131 344.33 64.3874 344.273 64.4617C344.221 64.536 344.162 64.6084 344.097 64.6788C344.06 64.7179 344.028 64.7375 344 64.7375C343.983 64.7375 343.975 64.7296 343.975 64.714C343.975 64.7023 343.985 64.6847 344.006 64.6612C344.148 64.4852 344.265 64.3229 344.359 64.1742C344.452 64.0217 344.523 63.9083 344.571 63.834C344.604 63.7792 344.644 63.7499 344.693 63.746C344.746 63.7381 344.79 63.7342 344.827 63.7342C344.843 63.7342 344.872 63.7362 344.912 63.7401C344.953 63.7401 344.993 63.7401 345.034 63.7401C345.018 63.7714 344.985 63.8261 344.936 63.9044C344.892 63.9826 344.843 64.0647 344.79 64.1508C344.742 64.2368 344.701 64.315 344.669 64.3854C344.726 64.319 344.805 64.2251 344.906 64.1038C345.011 63.9787 345.133 63.875 345.271 63.7929C345.401 63.7186 345.518 63.6814 345.624 63.6814C345.798 63.6814 345.885 63.7694 345.885 63.9454C345.885 63.9924 345.877 64.0452 345.861 64.1038C345.845 64.1625 345.818 64.2251 345.782 64.2916C345.705 64.4363 345.622 64.5888 345.533 64.7492C345.447 64.9056 345.385 65.0523 345.344 65.1892C345.34 65.2048 345.336 65.2185 345.332 65.2303C345.332 65.242 345.332 65.2537 345.332 65.2655C345.332 65.3359 345.368 65.3711 345.441 65.3711C345.482 65.3711 345.528 65.3593 345.581 65.3359C345.695 65.2889 345.816 65.2146 345.946 65.1129C346.076 65.0112 346.198 64.8998 346.311 64.7785C346.429 64.6573 346.522 64.5458 346.591 64.4441C346.615 64.405 346.64 64.3854 346.664 64.3854C346.684 64.3854 346.694 64.3952 346.694 64.4148C346.694 64.4383 346.686 64.4598 346.67 64.4793C346.597 64.5849 346.502 64.7042 346.384 64.8372C346.271 64.9663 346.147 65.0875 346.013 65.2009C345.883 65.3105 345.758 65.3906 345.636 65.4415C345.551 65.4728 345.47 65.4884 345.393 65.4884C345.287 65.4884 345.194 65.463 345.113 65.4121C345.036 65.3574 344.997 65.2772 344.997 65.1716C344.997 65.156 344.997 65.1403 344.997 65.1247C345.001 65.1051 345.005 65.0875 345.009 65.0719C345.042 64.9272 345.107 64.7785 345.204 64.626C345.301 64.4695 345.391 64.319 345.472 64.1742C345.516 64.0882 345.539 64.0217 345.539 63.9748C345.539 63.9122 345.506 63.8809 345.441 63.8809C345.413 63.8809 345.38 63.8868 345.344 63.8985C345.307 63.9102 345.269 63.9317 345.228 63.963C345.143 64.0178 345.054 64.1019 344.961 64.2153C344.867 64.3248 344.772 64.4598 344.675 64.6201C344.586 64.7727 344.502 64.9252 344.425 65.0777C344.348 65.2303 344.286 65.3574 344.237 65.4591C344.176 65.4591 344.105 65.4689 344.024 65.4884C343.947 65.508 343.89 65.5236 343.854 65.5353Z" fill="black"/>
<path d="M347.159 65.5001C347.026 65.5001 346.914 65.461 346.825 65.3828C346.736 65.3007 346.691 65.1951 346.691 65.066C346.691 64.9995 346.703 64.9311 346.727 64.8607C346.809 64.6455 346.904 64.4226 347.013 64.1918C347.123 63.9572 347.24 63.7284 347.366 63.5054H347.159C347.07 63.5054 347.026 63.4878 347.026 63.4526C347.026 63.4331 347.038 63.4174 347.062 63.4057C347.09 63.39 347.123 63.3822 347.159 63.3822C347.2 63.3783 347.243 63.3783 347.287 63.3822C347.332 63.3822 347.38 63.3822 347.433 63.3822L347.956 62.4553C347.972 62.424 348.009 62.4044 348.066 62.3966C348.127 62.3849 348.171 62.379 348.2 62.379C348.244 62.379 348.287 62.3888 348.327 62.4083C348.372 62.4279 348.386 62.4494 348.37 62.4729C348.358 62.4885 348.331 62.5315 348.291 62.6019C348.254 62.6723 348.21 62.7545 348.157 62.8483C348.104 62.9422 348.05 63.038 347.993 63.1358C347.94 63.2297 347.893 63.3118 347.853 63.3822H348.114C348.216 63.3822 348.323 63.3822 348.437 63.3822C348.554 63.3783 348.66 63.3724 348.753 63.3646C348.846 63.3568 348.907 63.347 348.936 63.3353C348.96 63.3236 348.984 63.3177 349.009 63.3177C349.049 63.3177 349.069 63.3333 349.069 63.3646C349.069 63.3998 349.041 63.4331 348.984 63.4644C348.944 63.4839 348.865 63.4976 348.747 63.5054C348.629 63.5093 348.494 63.5113 348.339 63.5113H348.133C348.08 63.5113 348.023 63.5113 347.962 63.5113C347.902 63.5074 347.843 63.5054 347.786 63.5054C347.652 63.744 347.514 63.9806 347.372 64.2153C347.234 64.4461 347.123 64.6925 347.038 64.9545C347.013 65.0288 347.001 65.0953 347.001 65.154C347.001 65.2948 347.066 65.3652 347.196 65.3652C347.261 65.3652 347.342 65.3417 347.439 65.2948C347.618 65.2088 347.792 65.0856 347.962 64.9252C348.133 64.7648 348.281 64.5986 348.406 64.4265C348.427 64.3952 348.449 64.3796 348.473 64.3796C348.49 64.3796 348.498 64.3894 348.498 64.4089C348.498 64.4285 348.49 64.4519 348.473 64.4793C348.344 64.6671 348.2 64.8391 348.041 64.9956C347.887 65.152 347.711 65.287 347.512 65.4004C347.386 65.4669 347.269 65.5001 347.159 65.5001Z" fill="black"/>
<line x1="350" x2="350" y2="24" stroke="#F2C158" stroke-width="8"/>
<line x1="489.123" x2="489.123" y2="69" stroke="#F2C158" stroke-width="8"/>
<line x1="211.371" x2="211.371" y2="69" stroke="#F2C158" stroke-width="8"/>
<line x1="558.562" x2="558.562" y2="69" stroke="#F2C158" stroke-width="8"/>
<line x1="281" x2="281" y2="24" stroke="#F2C158" stroke-width="8"/>
<line x1="419.686" x2="419.686" y2="69" stroke="#F2C158" stroke-width="8"/>
<line x1="141.933" x2="141.933" y2="69" stroke="#F2C158" stroke-width="8"/>
<line x1="72.4941" x2="72.4941" y2="69" stroke="#F2C158" stroke-width="8"/>
<line x1="3.05664" x2="3.05664" y2="69" stroke="#F2C158" stroke-width="8"/>
<line x1="333" x2="333" y2="24" stroke="#F2C158" stroke-width="8"/>
<line x1="471.596" x2="471.596" y2="69" stroke="#F2C158" stroke-width="8"/>
<line x1="193.843" x2="193.843" y2="69" stroke="#F2C158" stroke-width="8"/>
<line x1="541.033" x2="541.033" y2="69" stroke="#F2C158" stroke-width="8"/>
<line x1="263" x2="263" y2="24" stroke="#F2C158" stroke-width="8"/>
<line x1="402.157" x2="402.157" y2="69" stroke="#F2C158" stroke-width="8"/>
<line x1="124.404" x2="124.404" y2="69" stroke="#F2C158" stroke-width="8"/>
<line x1="54.9668" x2="54.9668" y2="69" stroke="#F2C158" stroke-width="8"/>
<line x1="592.943" x2="592.943" y2="69" stroke="#F2C158" stroke-width="8"/>
<line x1="315" x2="315" y2="24" stroke="#F2C158" stroke-width="8"/>
<line x1="454.067" x2="454.067" y2="69" stroke="#F2C158" stroke-width="8"/>
<line x1="176.314" x2="176.314" y2="69" stroke="#F2C158" stroke-width="8"/>
<line x1="523.506" x2="523.506" y2="69" stroke="#F2C158" stroke-width="8"/>
<line x1="246" x2="246" y2="24" stroke="#F2C158" stroke-width="8"/>
<line x1="384.629" x2="384.629" y2="69" stroke="#F2C158" stroke-width="8"/>
<line x1="106.877" x2="106.877" y2="69" stroke="#F2C158" stroke-width="8"/>
<line x1="37.4385" x2="37.4385" y2="69" stroke="#F2C158" stroke-width="8"/>
<line x1="576.09" x2="576.09" y2="69" stroke="#F2C158" stroke-width="8"/>
<line x1="298" x2="298" y2="24" stroke="#F2C158" stroke-width="8"/>
<line x1="437.213" x2="437.213" y2="69" stroke="#F2C158" stroke-width="8"/>
<line x1="159.461" x2="159.461" y2="69" stroke="#F2C158" stroke-width="8"/>
<line x1="506.651" x2="506.651" y2="69" stroke="#F2C158" stroke-width="8"/>
<line x1="229" x2="229" y2="69" stroke="#F2C158" stroke-width="8"/>
<line x1="368" x2="368" y2="69" stroke="#F2C158" stroke-width="8"/>
<line x1="90.0225" x2="90.0225" y2="69" stroke="#F2C158" stroke-width="8"/>
<line x1="20.584" x2="20.584" y2="69" stroke="#F2C158" stroke-width="8"/>
<line x1="366" y1="1550" x2="366" y2="1619" stroke="#F2C158" stroke-width="8"/>
<line x1="505.123" y1="1550" x2="505.123" y2="1619" stroke="#F2C158" stroke-width="8"/>
<line x1="227.371" y1="1550" x2="227.371" y2="1619" stroke="#F2C158" stroke-width="8"/>
<line x1="574.562" y1="1550" x2="574.562" y2="1619" stroke="#F2C158" stroke-width="8"/>
<line x1="297" y1="1550" x2="297" y2="1619" stroke="#F2C158" stroke-width="8"/>
<line x1="435.686" y1="1550" x2="435.686" y2="1619" stroke="#F2C158" stroke-width="8"/>
<line x1="157.933" y1="1550" x2="157.933" y2="1619" stroke="#F2C158" stroke-width="8"/>
<line x1="88.4941" y1="1550" x2="88.4941" y2="1619" stroke="#F2C158" stroke-width="8"/>
<line x1="19.0566" y1="1550" x2="19.0566" y2="1619" stroke="#F2C158" stroke-width="8"/>
<line x1="349" y1="1550" x2="349" y2="1619" stroke="#F2C158" stroke-width="8"/>
<line x1="487.596" y1="1550" x2="487.596" y2="1619" stroke="#F2C158" stroke-width="8"/>
<line x1="209.843" y1="1550" x2="209.843" y2="1619" stroke="#F2C158" stroke-width="8"/>
<line x1="557.033" y1="1550" x2="557.033" y2="1619" stroke="#F2C158" stroke-width="8"/>
<line x1="279" y1="1550" x2="279" y2="1619" stroke="#F2C158" stroke-width="8"/>
<line x1="418.157" y1="1550" x2="418.157" y2="1619" stroke="#F2C158" stroke-width="8"/>
<line x1="140.404" y1="1550" x2="140.404" y2="1619" stroke="#F2C158" stroke-width="8"/>
<line x1="70.9668" y1="1550" x2="70.9668" y2="1619" stroke="#F2C158" stroke-width="8"/>
<line x1="1.52832" y1="1550" x2="1.52832" y2="1619" stroke="#F2C158" stroke-width="8"/>
<line x1="331" y1="1550" x2="331" y2="1619" stroke="#F2C158" stroke-width="8"/>
<line x1="470.067" y1="1550" x2="470.067" y2="1619" stroke="#F2C158" stroke-width="8"/>
<line x1="192.314" y1="1550" x2="192.314" y2="1619" stroke="#F2C158" stroke-width="8"/>
<line x1="539.506" y1="1550" x2="539.506" y2="1619" stroke="#F2C158" stroke-width="8"/>
<line x1="262" y1="1550" x2="262" y2="1619" stroke="#F2C158" stroke-width="8"/>
<line x1="400.629" y1="1550" x2="400.629" y2="1619" stroke="#F2C158" stroke-width="8"/>
<line x1="122.877" y1="1550" x2="122.877" y2="1619" stroke="#F2C158" stroke-width="8"/>
<line x1="53.4385" y1="1550" x2="53.4385" y2="1619" stroke="#F2C158" stroke-width="8"/>
<line x1="592.09" y1="1550" x2="592.09" y2="1619" stroke="#F2C158" stroke-width="8"/>
<line x1="314" y1="1550" x2="314" y2="1619" stroke="#F2C158" stroke-width="8"/>
<line x1="453.213" y1="1550" x2="453.213" y2="1619" stroke="#F2C158" stroke-width="8"/>
<line x1="175.461" y1="1550" x2="175.461" y2="1619" stroke="#F2C158" stroke-width="8"/>
<line x1="522.651" y1="1550" x2="522.651" y2="1619" stroke="#F2C158" stroke-width="8"/>
<line x1="245" y1="1550" x2="245" y2="1619" stroke="#F2C158" stroke-width="8"/>
<line x1="384" y1="1550" x2="384" y2="1619" stroke="#F2C158" stroke-width="8"/>
<line x1="106.022" y1="1550" x2="106.022" y2="1619" stroke="#F2C158" stroke-width="8"/>
<line x1="36.584" y1="1550" x2="36.584" y2="1619" stroke="#F2C158" stroke-width="8"/>
</g>
<defs>
<clipPath id="clip0_81_2273">
<rect width="595" height="1613" fill="white"/>
</clipPath>
</defs>
</svg>
