<svg width="159" height="168" viewBox="0 0 159 168" fill="none" xmlns="http://www.w3.org/2000/svg">
<path d="M25.4133 123.786L41.6955 96.5018C50.0754 102.804 52.9176 107.153 51.1184 117.989L51.2111 139.2C35.6057 136.763 30.2268 133.224 25.4133 123.786Z" fill="#7C848A"/>
<path d="M141.599 109.969L108.439 110.235C108.891 99.5949 110.948 94.8149 121.347 90.6426L139.556 79.3259C146.722 94.2143 146.868 100.776 141.599 109.969Z" fill="#7C848A"/>
<path d="M89.1848 151.573L70.584 124.121C79.6907 118.599 84.8094 117.662 94.0461 124.005L113.558 132.889C105.138 147.105 99.7573 150.863 89.1848 151.573Z" fill="#7C848A"/>
<path d="M133.739 44.1605L117.52 71.4823C109.126 65.1996 106.273 60.8576 108.048 50.0173L107.906 28.8065C123.517 31.2074 128.904 34.734 133.739 44.1605Z" fill="#7C848A"/>
<path d="M17.5868 58.2468L50.7459 57.9041C50.3186 68.5452 48.2726 73.33 37.8833 77.5265L19.7002 88.8853C12.5001 74.0136 12.3391 67.4525 17.5868 58.2468Z" fill="#7C848A"/>
<path d="M73.5238 13.6656L88.1384 44.4998C77.896 50.0024 72.4916 50.742 64.0475 43.3493L45.4744 32.6373C56.4284 17.6518 62.5608 13.8619 73.5238 13.6656Z" fill="#7C848A"/>
<path d="M19.6983 91.1399L46.2258 74.1645C48.7763 83.9781 47.7363 89.4927 38.6769 99.3289L24.5677 120.15C16.2078 111.719 15.8967 105.032 19.6983 91.1399Z" fill="#975B47"/>
<path d="M116.882 132.241L86.5162 118.119C93.4523 110.698 98.8183 108.683 112.666 111.366L138.97 112.631C136.674 124.381 131.1 128.194 116.882 132.241Z" fill="#975B47"/>
<path d="M56.9474 143.344L51.8709 110.243C61.892 111.903 66.5434 115.252 71.9854 128.266L85.5125 150.861C74.4594 155.462 68.1962 152.936 56.9474 143.344Z" fill="#975B47"/>
<path d="M139.53 76.7925L113.042 93.8295C110.469 84.0218 111.496 78.5047 120.532 68.6476L134.593 47.7943C142.973 56.2056 143.299 62.892 139.53 76.7925Z" fill="#975B47"/>
<path d="M45.1319 34.3592L72.639 49.8991C65.7267 57.3761 60.3677 59.4174 46.5135 56.7654L20.209 55.5779C22.4692 43.7663 30.9277 38.469 45.1319 34.3592Z" fill="#975B47"/>
<path d="M104.304 25.339L107.007 58.7182C97.1299 56.3479 92.7291 52.6754 88.2287 39.3072L76.347 15.8053C87.7 12.0038 93.7672 14.9693 104.304 25.339Z" fill="#975B47"/>
</svg>
