<svg width="1039" height="467" viewBox="0 0 1039 467" fill="none" xmlns="http://www.w3.org/2000/svg">
<path d="M357.683 204.141C357.683 195.979 359.067 188.255 361.836 180.967C364.606 173.607 368.359 167.267 373.095 161.947C377.832 156.627 383.553 152.401 390.257 149.267C397.035 146.133 404.213 144.567 411.792 144.567C422.213 144.567 431.431 147.226 439.447 152.546C447.536 157.793 453.694 164.935 457.921 173.971C462.148 183.008 464.261 193.137 464.261 204.36C464.261 206.182 464.188 207.676 464.042 208.842H369.27C370.217 222.542 374.99 233.473 383.589 241.635C392.261 249.724 402.427 253.768 414.087 253.768C429.099 253.768 442.144 247.829 453.221 235.951L460.872 242.619C454.459 249.542 447.536 254.862 440.103 258.578C432.743 262.295 423.925 264.153 413.65 264.153C406.217 264.153 399.075 262.696 392.225 259.781C385.448 256.866 379.508 252.858 374.407 247.756C369.306 242.582 365.225 236.242 362.164 228.736C359.177 221.157 357.683 212.959 357.683 204.141ZM369.27 199.004H452.346C451.982 193.101 450.852 187.562 448.957 182.388C447.063 177.141 444.476 172.441 441.196 168.287C437.917 164.06 433.69 160.745 428.516 158.34C423.415 155.862 417.694 154.623 411.354 154.623C400.132 154.623 390.549 158.85 382.606 167.303C374.735 175.757 370.29 186.323 369.27 199.004Z" fill="#F2C158"/>
<path d="M496.508 117.457V102.482H510.062V117.457H496.508ZM497.82 261.42V147.299H508.751V261.42H497.82Z" fill="#F2C158"/>
<path d="M544.605 198.785C544.605 190.842 546.172 183.445 549.305 176.595C552.439 169.672 556.556 163.915 561.657 159.324C566.831 154.733 572.698 151.125 579.256 148.502C585.815 145.878 592.556 144.567 599.479 144.567C610.119 144.567 619.41 146.935 627.353 151.672C635.297 156.409 641.892 162.53 647.139 170.036V147.299H658.07V243.712C658.07 259.89 653.224 272.825 643.531 282.517C633.402 292.647 619.592 297.712 602.102 297.712C582.937 297.712 565.483 291.882 549.742 280.222L556.192 271.258C570.256 282.044 585.633 287.436 602.321 287.436C615.876 287.436 626.734 283.61 634.896 275.959C643.058 268.307 647.139 257.339 647.139 243.056V226.55C634.896 244.113 619.009 252.894 599.479 252.894C592.556 252.894 585.815 251.619 579.256 249.068C572.698 246.445 566.831 242.874 561.657 238.356C556.556 233.765 552.439 228.044 549.305 221.194C546.172 214.271 544.605 206.801 544.605 198.785ZM556.41 198.785C556.41 207.165 558.451 214.708 562.532 221.412C566.613 228.117 572.005 233.291 578.71 236.935C585.487 240.578 592.775 242.4 600.572 242.4C606.475 242.4 612.268 241.343 617.953 239.23C623.637 237.117 628.665 234.202 633.038 230.485C637.483 226.769 641.054 222.141 643.75 216.603C646.446 210.991 647.795 204.979 647.795 198.566C647.795 190.113 645.499 182.498 640.908 175.72C636.317 168.943 630.45 163.805 623.309 160.307C616.167 156.809 608.588 155.06 600.572 155.06C592.556 155.06 585.196 156.809 578.491 160.307C571.86 163.732 566.503 168.834 562.423 175.611C558.414 182.315 556.41 190.04 556.41 198.785Z" fill="#F2C158"/>
<path d="M699.717 261.42V98H710.758V168.506C719.867 152.546 733.604 144.567 751.968 144.567C766.106 144.567 777.219 148.903 785.308 157.575C793.47 166.247 797.551 177.579 797.551 191.57V261.42H786.62V193.538C786.62 181.66 783.413 172.222 777 165.226C770.587 158.158 761.697 154.623 750.328 154.623C739.033 154.623 729.596 158.486 722.017 166.21C714.511 173.862 710.758 183.591 710.758 195.396V261.42H699.717Z" fill="#F2C158"/>
<path d="M826.518 157.356V147.299H843.134V110.789H854.065V147.299H894.182V157.356H854.065V230.922C854.065 245.716 861.68 253.113 876.911 253.113C882.231 253.113 887.842 251.764 893.745 249.068V259.453C888.206 262.076 882.012 263.388 875.162 263.388C865.688 263.388 857.964 260.764 851.988 255.517C846.085 250.271 843.134 242.473 843.134 232.125V157.356H826.518Z" fill="#F2C158"/>
<path fill-rule="evenodd" clip-rule="evenodd" d="M893.8 323.388H206.694V320.106H893.8V323.388Z" fill="white"/>
<path d="M205.654 99.1987C267.319 98.5367 317.845 147.989 318.507 209.654C319.169 271.319 269.717 321.845 208.052 322.507C146.387 323.169 95.8608 273.717 95.1987 212.052C94.5367 150.387 143.989 99.8607 205.654 99.1987Z" fill="#132538"/>
<path d="M148.063 253.13L165.878 223.278C175.047 230.174 178.156 234.931 176.188 246.787L176.289 269.995C159.215 267.328 153.33 263.456 148.063 253.13Z" fill="#7C848A"/>
<path d="M275.184 238.013L238.904 238.304C239.398 226.662 241.649 221.433 253.027 216.868L272.95 204.486C280.79 220.775 280.949 227.954 275.184 238.013Z" fill="#7C848A"/>
<path d="M217.837 283.533L197.486 253.497C207.449 247.456 213.05 246.43 223.156 253.37L244.505 263.09C235.292 278.644 229.405 282.756 217.837 283.533Z" fill="#7C848A"/>
<path d="M266.585 166.011L248.84 195.904C239.655 189.03 236.534 184.28 238.476 172.419L238.32 149.212C255.401 151.839 261.295 155.697 266.585 166.011Z" fill="#7C848A"/>
<path d="M139.5 181.423L175.78 181.048C175.313 192.691 173.074 197.926 161.707 202.517L141.813 214.945C133.935 198.674 133.759 191.495 139.5 181.423Z" fill="#7C848A"/>
<path d="M200.702 132.646L216.693 166.382C205.486 172.402 199.573 173.212 190.334 165.123L170.013 153.403C181.998 137.007 188.708 132.86 200.702 132.646Z" fill="#7C848A"/>
<path d="M141.811 217.411L170.835 198.838C173.626 209.576 172.488 215.609 162.576 226.371L147.139 249.151C137.992 239.927 137.652 232.611 141.811 217.411Z" fill="#975B47"/>
<path d="M248.141 262.38L214.918 246.929C222.507 238.81 228.378 236.605 243.529 239.541L272.309 240.925C269.796 253.781 263.698 257.953 248.141 262.38Z" fill="#975B47"/>
<path d="M182.566 274.53L177.011 238.313C187.976 240.129 193.065 243.794 199.019 258.032L213.819 282.753C201.726 287.788 194.873 285.025 182.566 274.53Z" fill="#975B47"/>
<path d="M272.921 201.714L243.94 220.354C241.125 209.624 242.249 203.587 252.136 192.802L267.52 169.986C276.688 179.189 277.045 186.505 272.921 201.714Z" fill="#975B47"/>
<path d="M169.638 155.287L199.734 172.29C192.171 180.47 186.308 182.704 171.15 179.802L142.369 178.503C144.842 165.58 154.097 159.784 169.638 155.287Z" fill="#975B47"/>
<path d="M234.379 145.418L237.337 181.939C226.53 179.345 221.715 175.327 216.791 160.701L203.791 134.987C216.213 130.828 222.851 134.072 234.379 145.418Z" fill="#975B47"/>
<path d="M220.549 193.71C220.549 193.837 220.549 193.986 220.549 194.156C220.506 194.368 220.485 194.559 220.485 194.729C220.485 194.941 220.485 195.133 220.485 195.303C220.443 195.472 220.421 195.579 220.421 195.621C220.336 195.791 220.103 196.28 219.72 197.087C219.296 197.894 218.871 198.765 218.446 199.699C217.979 200.634 217.554 201.504 217.172 202.312C216.747 203.119 216.471 203.607 216.343 203.777V204.478V205.179C216.726 205.476 217.257 205.922 217.936 206.517C218.616 207.154 219.359 207.855 220.167 208.62C220.974 209.427 221.802 210.276 222.652 211.168C223.501 212.103 224.266 213.037 224.945 213.972C225.583 214.949 226.135 215.905 226.602 216.839C227.027 217.774 227.239 218.666 227.239 219.516C227.239 221.682 226.645 223.487 225.455 224.932C224.266 226.376 222.736 227.523 220.867 228.372C218.998 229.264 216.896 229.902 214.559 230.284C212.223 230.709 209.908 230.985 207.614 231.112C205.32 231.24 203.175 231.282 201.178 231.24C199.182 231.24 197.568 231.24 196.336 231.24C194.849 231.24 193.681 230.815 192.831 229.965C191.982 229.158 191.557 228.011 191.557 226.525C191.557 225.378 191.833 224.124 192.385 222.765C192.938 221.406 193.66 220.025 194.552 218.623C195.444 217.222 196.421 215.841 197.483 214.482C198.502 213.122 199.543 211.827 200.605 210.595C201.624 209.406 202.559 208.344 203.409 207.409C204.258 206.474 204.917 205.731 205.384 205.179C204.662 204.074 203.961 202.97 203.281 201.866C202.601 200.804 202.007 199.72 201.497 198.616C200.987 197.511 200.584 196.364 200.286 195.175C199.989 194.028 199.84 192.817 199.84 191.543C199.84 188.655 200.732 186.531 202.517 185.171C204.258 183.854 206.531 183.196 209.334 183.196C210.779 183.196 212.18 183.451 213.54 183.961C214.857 184.513 216.046 185.256 217.108 186.191C218.128 187.168 218.956 188.293 219.593 189.568C220.23 190.885 220.549 192.265 220.549 193.71ZM213.731 193.518C213.731 192.202 213.285 191.076 212.393 190.141C211.501 189.207 210.29 188.74 208.761 188.74C207.826 188.74 207.019 188.931 206.34 189.313C205.617 189.738 205.256 190.417 205.256 191.352C205.256 192.287 205.448 193.136 205.83 193.901C206.17 194.665 206.616 195.387 207.168 196.067C207.678 196.789 208.251 197.448 208.888 198.042C209.526 198.637 210.184 199.189 210.864 199.699C211.883 199.019 212.627 198.106 213.094 196.959C213.519 195.855 213.731 194.708 213.731 193.518ZM220.549 220.216C220.549 219.154 220.23 218.05 219.593 216.903C218.956 215.756 218.17 214.715 217.235 213.781C216.301 212.846 215.26 212.06 214.113 211.423C212.966 210.829 211.883 210.531 210.864 210.531C210.694 210.531 210.46 210.531 210.163 210.531C209.823 210.574 209.611 210.595 209.526 210.595C209.228 210.85 208.676 211.317 207.869 211.997C207.019 212.719 206.148 213.526 205.256 214.418C204.364 215.353 203.536 216.33 202.771 217.349C202.007 218.369 201.497 219.324 201.242 220.216C201.964 221.278 202.644 222.085 203.281 222.638C203.876 223.232 204.513 223.657 205.193 223.912C205.83 224.167 206.51 224.316 207.232 224.358C207.954 224.401 208.803 224.422 209.78 224.422C210.545 224.422 211.543 224.422 212.775 224.422C214.007 224.422 215.196 224.294 216.343 224.04C217.49 223.827 218.489 223.424 219.338 222.829C220.145 222.234 220.549 221.363 220.549 220.216Z" fill="#F2C158"/>
<path d="M552.492 376.31C550.934 376.31 549.806 375.774 549.107 374.701C548.408 373.598 548.059 372.326 548.059 370.886C548.059 369.537 548.313 368.189 548.821 366.84C549.361 365.461 550.092 364.312 551.014 363.392C551.967 362.473 553.079 362.013 554.35 362.013C554.414 362.013 554.557 362.029 554.779 362.059C555.002 362.059 555.145 362.075 555.208 362.105C556.162 361.186 557.147 360.726 558.164 360.726C559.085 360.726 559.864 361.124 560.499 361.921C561.167 362.688 561.5 363.775 561.5 365.185C561.5 366.166 561.341 367.208 561.024 368.311C560.706 369.415 560.293 370.457 559.784 371.437C559.308 372.387 558.783 373.169 558.211 373.782C558.339 373.813 558.45 373.828 558.545 373.828C558.64 373.828 558.752 373.828 558.879 373.828C559.991 373.828 561.087 373.552 562.168 373C563.248 372.449 564.265 371.729 565.218 370.84C566.203 369.92 567.061 368.924 567.792 367.852C567.951 367.668 568.062 367.576 568.126 367.576C568.285 367.576 568.364 367.683 568.364 367.898C568.364 368.112 568.301 368.296 568.174 368.449C567.856 369.001 567.363 369.645 566.696 370.38C566.029 371.085 565.25 371.79 564.36 372.495C563.502 373.2 562.581 373.782 561.596 374.242C560.611 374.701 559.625 374.931 558.64 374.931C558.418 374.931 558.18 374.916 557.925 374.885C557.703 374.824 557.481 374.778 557.258 374.747C556.75 375.207 556.019 375.575 555.065 375.851C554.112 376.157 553.254 376.31 552.492 376.31ZM556.877 373.368C557.798 372.387 558.513 371.131 559.022 369.599C559.53 368.066 559.784 366.595 559.784 365.185C559.784 365.001 559.784 364.818 559.784 364.634C559.784 364.45 559.768 364.281 559.737 364.128C559.641 363.331 559.451 362.764 559.165 362.427C558.879 362.059 558.545 361.875 558.164 361.875C557.592 361.875 556.988 362.212 556.352 362.887C555.749 363.53 555.32 364.312 555.065 365.231C554.811 366.12 554.684 367.055 554.684 368.036C554.684 369.169 554.859 370.242 555.208 371.254C555.558 372.234 556.114 372.939 556.877 373.368ZM553.445 375.115C554.366 375.115 555.224 374.809 556.019 374.196C555.129 373.583 554.478 372.74 554.064 371.667C553.651 370.595 553.445 369.461 553.445 368.265C553.445 367.407 553.54 366.564 553.731 365.737C553.953 364.879 554.255 364.113 554.636 363.438C554.033 363.561 553.445 364.067 552.873 364.955C552.301 365.844 551.824 366.886 551.443 368.081C551.093 369.277 550.919 370.426 550.919 371.529C550.919 372.541 551.109 373.399 551.491 374.104C551.872 374.778 552.523 375.115 553.445 375.115Z" fill="white"/>
<path d="M575.583 376.035C574.788 376.035 574.184 375.805 573.771 375.345C573.358 374.855 573.152 374.226 573.152 373.46C573.152 373.123 573.183 372.755 573.247 372.357C573.342 371.928 573.485 371.514 573.676 371.116C574.026 370.319 574.423 369.568 574.868 368.863C575.344 368.127 575.773 367.331 576.155 366.472C576.377 366.013 576.488 365.599 576.488 365.231C576.488 364.772 576.298 364.465 575.916 364.312C575.535 364.128 575.074 364.021 574.534 363.99C573.994 363.929 573.485 363.852 573.009 363.76C572.5 365.17 571.896 366.427 571.197 367.53C570.53 368.633 569.688 369.736 568.671 370.84C568.322 371.177 568.067 371.345 567.908 371.345C567.781 371.345 567.718 371.284 567.718 371.162C567.718 370.947 567.893 370.656 568.242 370.288C568.941 369.522 569.561 368.71 570.101 367.852C570.673 366.963 571.134 366.135 571.483 365.369C571.865 364.603 572.103 364.036 572.198 363.668C571.499 363.392 570.943 362.871 570.53 362.105C570.117 361.308 569.91 360.527 569.91 359.761C569.91 358.841 570.149 358.09 570.625 357.508C571.102 356.895 571.595 356.589 572.103 356.589C572.548 356.589 572.945 356.834 573.295 357.324C573.644 357.815 573.819 358.642 573.819 359.807C573.819 360.297 573.755 360.803 573.628 361.324C573.501 361.814 573.39 362.228 573.295 362.565C573.676 362.626 574.121 362.672 574.629 362.703C575.138 362.703 575.567 362.718 575.916 362.749C576.329 362.749 576.727 362.764 577.108 362.795C577.521 362.825 577.886 362.887 578.204 362.979C579.062 363.224 579.491 363.73 579.491 364.496C579.491 365.17 579.221 366.013 578.681 367.024C578.268 367.882 577.807 368.74 577.299 369.599C576.79 370.457 576.361 371.33 576.012 372.219C575.884 372.525 575.773 372.847 575.678 373.184C575.614 373.491 575.583 373.767 575.583 374.012C575.583 374.625 575.869 374.931 576.441 374.931C576.758 374.931 577.171 374.839 577.68 374.655C578.57 374.288 579.491 373.705 580.445 372.908C581.43 372.112 582.351 371.238 583.209 370.288C584.067 369.338 584.766 368.465 585.306 367.668C585.592 367.269 585.847 367.07 586.069 367.07C586.196 367.07 586.26 367.147 586.26 367.3C586.26 367.514 586.133 367.79 585.878 368.127C585.338 368.955 584.607 369.874 583.686 370.886C582.796 371.866 581.843 372.786 580.826 373.644C579.809 374.471 578.824 375.084 577.871 375.483C576.981 375.851 576.218 376.035 575.583 376.035ZM572.484 362.427C572.516 362.304 572.532 362.09 572.532 361.783C572.532 361.538 572.516 361.278 572.484 361.002C572.484 360.695 572.484 360.389 572.484 360.082C572.484 358.795 572.31 358.182 571.96 358.244C571.833 358.274 571.722 358.427 571.626 358.703C571.531 358.979 571.483 359.301 571.483 359.669C571.483 360.19 571.563 360.726 571.722 361.278C571.912 361.829 572.167 362.212 572.484 362.427Z" fill="white"/>
<path d="M593.858 360.818C593.381 360.818 593.016 360.665 592.762 360.358C592.507 360.052 592.38 359.699 592.38 359.301C592.38 358.872 592.539 358.519 592.857 358.244C593.207 357.968 593.572 357.83 593.953 357.83C594.43 357.83 594.811 357.983 595.097 358.29C595.383 358.565 595.526 358.903 595.526 359.301C595.526 359.699 595.351 360.052 595.002 360.358C594.652 360.665 594.271 360.818 593.858 360.818ZM591.57 376.494C590.49 376.494 589.632 376.111 588.996 375.345C588.361 374.548 588.043 373.552 588.043 372.357C588.043 371.499 588.202 370.625 588.519 369.736C588.678 369.246 588.869 368.679 589.091 368.036C589.314 367.361 589.52 366.779 589.711 366.289C589.298 366.871 588.869 367.453 588.424 368.036C588.011 368.618 587.55 369.185 587.042 369.736C586.756 370.043 586.486 370.196 586.231 370.196C586.104 370.196 586.041 370.135 586.041 370.012C586.041 369.89 586.12 369.736 586.279 369.553C587.391 368.173 588.313 366.902 589.044 365.737C589.806 364.572 590.378 363.699 590.76 363.117C591.014 362.688 591.427 362.427 591.999 362.335C592.571 362.243 593.064 362.212 593.477 362.243C593.604 362.243 593.747 362.258 593.906 362.289C594.065 362.289 594.303 362.289 594.621 362.289C594.43 362.657 594.128 363.285 593.715 364.174C593.334 365.032 592.936 365.967 592.523 366.978C592.11 367.959 591.745 368.832 591.427 369.599C591.141 370.273 590.903 370.947 590.712 371.621C590.553 372.296 590.474 372.908 590.474 373.46C590.474 374.042 590.585 374.517 590.807 374.885C591.03 375.253 591.379 375.437 591.856 375.437C592.492 375.437 593.222 375.192 594.049 374.701C594.875 374.211 595.701 373.598 596.527 372.862C597.385 372.127 598.164 371.376 598.863 370.61C599.594 369.813 600.166 369.108 600.579 368.495C600.706 368.311 600.849 368.219 601.008 368.219C601.167 368.219 601.246 368.342 601.246 368.587C601.246 368.771 601.183 368.94 601.056 369.093C599.403 371.269 597.798 373.046 596.241 374.426C594.716 375.805 593.159 376.494 591.57 376.494Z" fill="white"/>
<path d="M607.215 376.08C606.103 376.142 605.197 375.958 604.498 375.529C603.831 375.069 603.338 374.471 603.021 373.736C602.735 372.97 602.592 372.173 602.592 371.345C602.592 370.886 602.639 370.426 602.735 369.966C602.83 369.507 602.941 369.078 603.068 368.679C603.418 367.698 603.894 366.794 604.498 365.967C605.102 365.139 605.753 364.434 606.453 363.852C607.12 363.3 607.851 362.871 608.645 362.565C609.471 362.228 610.234 362.059 610.933 362.059C611.632 362.059 612.22 362.243 612.697 362.611C613.173 362.948 613.412 363.515 613.412 364.312C613.412 364.741 613.316 365.277 613.126 365.921C612.776 366.993 612.029 367.944 610.885 368.771C609.773 369.599 608.566 370.012 607.263 370.012C606.882 370.012 606.468 369.966 606.024 369.874C605.801 370.641 605.69 371.422 605.69 372.219C605.69 373.046 605.865 373.736 606.214 374.288C606.596 374.809 607.199 375.069 608.026 375.069C608.979 375.069 610.027 374.763 611.171 374.15C612.315 373.506 613.459 372.648 614.603 371.575C615.779 370.503 616.844 369.277 617.797 367.898C617.924 367.683 618.067 367.576 618.226 367.576C618.385 367.576 618.464 367.698 618.464 367.944C618.464 368.189 618.385 368.403 618.226 368.587C617.368 369.721 616.383 370.855 615.271 371.989C614.159 373.092 612.935 374.027 611.6 374.793C610.266 375.559 608.804 375.989 607.215 376.08ZM606.929 369.231C607.469 369.231 608.057 369.032 608.693 368.633C609.328 368.235 609.916 367.76 610.456 367.208C611.028 366.656 611.426 366.151 611.648 365.691C611.998 365.017 612.172 364.45 612.172 363.99C612.172 363.561 612.045 363.27 611.791 363.117C611.569 362.963 611.394 362.887 611.267 362.887C610.949 362.887 610.504 363.055 609.932 363.392C609.392 363.73 608.852 364.266 608.312 365.001C607.803 365.645 607.358 366.335 606.977 367.07C606.596 367.806 606.357 368.48 606.262 369.093C606.453 369.185 606.675 369.231 606.929 369.231Z" fill="white"/>
<path d="M617.738 376.448C618.532 374.763 619.327 373.031 620.121 371.254C620.916 369.476 621.646 367.821 622.314 366.289C621.901 366.871 621.472 367.453 621.027 368.036C620.614 368.618 620.153 369.185 619.644 369.736C619.358 370.043 619.104 370.196 618.882 370.196C618.755 370.196 618.691 370.135 618.691 370.012C618.691 369.92 618.771 369.782 618.929 369.599C620.042 368.219 620.963 366.948 621.694 365.783C622.425 364.588 622.981 363.699 623.362 363.117C623.617 362.688 623.934 362.458 624.316 362.427C624.729 362.366 625.078 362.335 625.364 362.335C625.491 362.335 625.714 362.35 626.032 362.381C626.349 362.381 626.667 362.381 626.985 362.381C626.858 362.626 626.604 363.055 626.222 363.668C625.873 364.281 625.491 364.925 625.078 365.599C624.697 366.273 624.379 366.886 624.125 367.438C624.57 366.917 625.19 366.181 625.984 365.231C626.81 364.251 627.763 363.438 628.844 362.795C629.861 362.212 630.782 361.921 631.609 361.921C632.975 361.921 633.658 362.611 633.658 363.99C633.658 364.358 633.595 364.772 633.467 365.231C633.34 365.691 633.134 366.181 632.848 366.702C632.244 367.836 631.593 369.032 630.894 370.288C630.226 371.514 629.734 372.663 629.416 373.736C629.384 373.859 629.352 373.966 629.321 374.058C629.321 374.15 629.321 374.242 629.321 374.334C629.321 374.885 629.607 375.161 630.179 375.161C630.496 375.161 630.862 375.069 631.275 374.885C632.165 374.517 633.118 373.935 634.135 373.138C635.152 372.341 636.105 371.468 636.995 370.518C637.916 369.568 638.647 368.694 639.187 367.898C639.378 367.591 639.569 367.438 639.759 367.438C639.918 367.438 639.998 367.514 639.998 367.668C639.998 367.852 639.934 368.02 639.807 368.173C639.235 369.001 638.488 369.936 637.567 370.978C636.677 371.989 635.708 372.939 634.659 373.828C633.642 374.686 632.657 375.314 631.704 375.713C631.037 375.958 630.401 376.08 629.797 376.08C628.971 376.08 628.24 375.881 627.605 375.483C627.001 375.054 626.699 374.426 626.699 373.598C626.699 373.475 626.699 373.353 626.699 373.23C626.731 373.077 626.763 372.939 626.794 372.817C627.049 371.683 627.557 370.518 628.32 369.323C629.082 368.097 629.781 366.917 630.417 365.783C630.766 365.109 630.941 364.588 630.941 364.22C630.941 363.73 630.687 363.484 630.179 363.484C629.956 363.484 629.702 363.53 629.416 363.622C629.13 363.714 628.828 363.883 628.51 364.128C627.843 364.557 627.144 365.216 626.413 366.105C625.682 366.963 624.935 368.02 624.173 369.277C623.474 370.472 622.822 371.667 622.218 372.862C621.615 374.058 621.122 375.054 620.741 375.851C620.264 375.851 619.708 375.927 619.072 376.08C618.469 376.234 618.024 376.356 617.738 376.448Z" fill="white"/>
<path d="M643.641 376.172C642.593 376.172 641.719 375.866 641.02 375.253C640.32 374.609 639.971 373.782 639.971 372.771C639.971 372.25 640.066 371.713 640.257 371.162C640.892 369.476 641.639 367.729 642.497 365.921C643.355 364.082 644.277 362.289 645.262 360.542H643.641C642.942 360.542 642.593 360.404 642.593 360.128C642.593 359.975 642.688 359.853 642.879 359.761C643.101 359.638 643.355 359.577 643.641 359.577C643.959 359.546 644.293 359.546 644.642 359.577C644.992 359.577 645.373 359.577 645.786 359.577L649.885 352.313C650.012 352.068 650.298 351.915 650.743 351.854C651.22 351.762 651.57 351.716 651.792 351.716C652.142 351.716 652.475 351.792 652.793 351.946C653.143 352.099 653.254 352.267 653.127 352.451C653.031 352.574 652.825 352.911 652.507 353.463C652.221 354.014 651.871 354.658 651.458 355.393C651.045 356.129 650.616 356.88 650.171 357.646C649.758 358.382 649.393 359.025 649.075 359.577H651.125C651.919 359.577 652.761 359.577 653.651 359.577C654.573 359.546 655.399 359.5 656.13 359.439C656.86 359.378 657.337 359.301 657.56 359.209C657.75 359.117 657.941 359.071 658.132 359.071C658.449 359.071 658.608 359.194 658.608 359.439C658.608 359.715 658.386 359.975 657.941 360.22C657.623 360.374 657.003 360.481 656.082 360.542C655.16 360.573 654.096 360.588 652.888 360.588H651.268C650.855 360.588 650.41 360.588 649.933 360.588C649.456 360.558 648.996 360.542 648.551 360.542C647.502 362.412 646.422 364.266 645.309 366.105C644.229 367.913 643.355 369.844 642.688 371.897C642.497 372.479 642.402 373 642.402 373.46C642.402 374.563 642.91 375.115 643.927 375.115C644.436 375.115 645.071 374.931 645.834 374.563C647.232 373.889 648.598 372.924 649.933 371.667C651.268 370.411 652.428 369.108 653.413 367.76C653.572 367.514 653.746 367.392 653.937 367.392C654.064 367.392 654.128 367.469 654.128 367.622C654.128 367.775 654.064 367.959 653.937 368.173C652.92 369.645 651.792 370.993 650.553 372.219C649.345 373.445 647.963 374.502 646.406 375.391C645.421 375.912 644.499 376.172 643.641 376.172Z" fill="white"/>
<path d="M666.382 375.989C665.492 375.989 664.857 375.651 664.476 374.977C664.094 374.303 663.904 373.521 663.904 372.633C663.904 372.479 663.904 372.311 663.904 372.127C663.904 371.943 663.919 371.775 663.951 371.621C663.347 372.663 662.569 373.644 661.616 374.563C660.662 375.483 659.487 375.943 658.088 375.943C657.135 375.943 656.325 375.605 655.657 374.931C655.022 374.257 654.704 373.23 654.704 371.851C654.704 370.748 655.022 369.369 655.657 367.714C656.007 366.917 656.515 366.105 657.183 365.277C657.85 364.45 658.66 363.76 659.614 363.209C660.567 362.626 661.632 362.335 662.807 362.335C664.078 362.335 664.968 362.565 665.477 363.025C665.985 363.484 666.303 363.837 666.43 364.082C666.43 364.113 666.43 364.143 666.43 364.174C666.462 364.174 666.478 364.189 666.478 364.22C666.478 364.496 666.303 364.634 665.953 364.634C665.794 364.634 665.635 364.557 665.477 364.404C665.095 363.975 664.714 363.668 664.333 363.484C663.951 363.3 663.586 363.209 663.236 363.209C662.505 363.209 661.822 363.515 661.187 364.128C660.551 364.71 659.979 365.415 659.471 366.243C658.994 367.039 658.597 367.79 658.279 368.495C657.834 369.476 657.5 370.365 657.278 371.162C657.087 371.928 656.992 372.571 656.992 373.092C656.992 374.471 657.485 375.161 658.47 375.161C659.169 375.161 659.995 374.732 660.948 373.874C661.902 373.016 662.807 371.744 663.665 370.058C664.428 368.587 665.111 367.285 665.715 366.151C666.319 364.986 666.843 363.975 667.288 363.117C667.383 362.902 667.622 362.749 668.003 362.657C668.384 362.534 668.765 362.473 669.147 362.473C669.496 362.473 669.814 362.534 670.1 362.657C670.386 362.749 670.529 362.917 670.529 363.163C670.529 363.285 670.45 363.454 670.291 363.668C669.909 364.189 669.417 364.955 668.813 365.967C668.241 366.978 667.701 368.036 667.193 369.139C666.716 370.242 666.398 371.223 666.239 372.081C666.144 372.541 666.096 372.954 666.096 373.322C666.096 374.303 666.446 374.793 667.145 374.793C667.367 374.793 667.717 374.717 668.194 374.563C669.083 374.196 669.989 373.629 670.91 372.862C671.864 372.066 672.754 371.192 673.58 370.242C674.438 369.292 675.153 368.403 675.725 367.576C676.011 367.177 676.233 366.978 676.392 366.978C676.487 366.978 676.535 367.055 676.535 367.208C676.535 367.453 676.408 367.76 676.154 368.127C675.582 368.955 674.851 369.874 673.961 370.886C673.103 371.897 672.166 372.832 671.149 373.69C670.164 374.548 669.195 375.176 668.241 375.575C667.542 375.851 666.922 375.989 666.382 375.989Z" fill="white"/>
<path d="M680.398 376.494C679.413 376.494 678.555 376.218 677.824 375.667C677.093 375.115 676.728 374.226 676.728 373C676.728 372.173 676.918 371.085 677.3 369.736C677.681 368.388 678.316 366.702 679.206 364.68C680.159 362.442 681.24 360.22 682.447 358.014C683.655 355.776 685.006 353.738 686.499 351.9C687.103 351.164 687.786 350.612 688.549 350.245C689.311 349.846 690.01 349.647 690.646 349.647C691.25 349.647 691.742 349.8 692.124 350.107C692.505 350.413 692.696 350.888 692.696 351.532C692.696 351.869 692.616 352.283 692.457 352.773C692.298 353.233 692.044 353.769 691.695 354.382C690.932 355.7 689.74 357.309 688.12 359.209C686.531 361.079 684.275 363.239 681.351 365.691C680.843 366.948 680.334 368.127 679.826 369.231C679.349 370.303 679.047 371.254 678.92 372.081C678.888 372.234 678.857 372.387 678.825 372.541C678.825 372.694 678.825 372.847 678.825 373C678.825 373.859 679.031 374.471 679.444 374.839C679.889 375.176 680.414 375.345 681.017 375.345C681.558 375.345 682.13 375.222 682.733 374.977C683.369 374.732 683.925 374.441 684.402 374.104C685.419 373.368 686.42 372.449 687.405 371.345C688.422 370.211 689.343 369.062 690.169 367.898C690.265 367.744 690.376 367.668 690.503 367.668C690.694 367.668 690.789 367.79 690.789 368.036C690.789 368.158 690.741 368.296 690.646 368.449C689.756 369.767 688.771 371.008 687.691 372.173C686.642 373.338 685.562 374.334 684.449 375.161C683.877 375.59 683.226 375.912 682.495 376.126C681.796 376.372 681.097 376.494 680.398 376.494ZM682.209 363.668C684.052 362.136 685.609 360.649 686.88 359.209C688.151 357.738 689.2 356.343 690.026 355.026C690.567 354.198 690.932 353.509 691.123 352.957C691.345 352.405 691.456 351.992 691.456 351.716C691.456 351.379 691.329 351.21 691.075 351.21C690.471 351.21 689.629 351.915 688.549 353.325C687.278 355.041 686.134 356.727 685.117 358.382C684.132 360.006 683.162 361.768 682.209 363.668Z" fill="white"/>
<path d="M711.439 376.035C710.645 376.035 710.041 375.805 709.628 375.345C709.215 374.855 709.008 374.226 709.008 373.46C709.008 373.123 709.04 372.755 709.104 372.357C709.199 371.928 709.342 371.514 709.533 371.116C709.882 370.319 710.28 369.568 710.724 368.863C711.201 368.127 711.63 367.331 712.011 366.472C712.234 366.013 712.345 365.599 712.345 365.231C712.345 364.772 712.154 364.465 711.773 364.312C711.392 364.128 710.931 364.021 710.391 363.99C709.851 363.929 709.342 363.852 708.865 363.76C708.357 365.17 707.753 366.427 707.054 367.53C706.387 368.633 705.545 369.736 704.528 370.84C704.178 371.177 703.924 371.345 703.765 371.345C703.638 371.345 703.575 371.284 703.575 371.162C703.575 370.947 703.749 370.656 704.099 370.288C704.798 369.522 705.418 368.71 705.958 367.852C706.53 366.963 706.991 366.135 707.34 365.369C707.721 364.603 707.96 364.036 708.055 363.668C707.356 363.392 706.8 362.871 706.387 362.105C705.974 361.308 705.767 360.527 705.767 359.761C705.767 358.841 706.006 358.09 706.482 357.508C706.959 356.895 707.451 356.589 707.96 356.589C708.405 356.589 708.802 356.834 709.151 357.324C709.501 357.815 709.676 358.642 709.676 359.807C709.676 360.297 709.612 360.803 709.485 361.324C709.358 361.814 709.247 362.228 709.151 362.565C709.533 362.626 709.978 362.672 710.486 362.703C710.995 362.703 711.424 362.718 711.773 362.749C712.186 362.749 712.583 362.764 712.965 362.795C713.378 362.825 713.743 362.887 714.061 362.979C714.919 363.224 715.348 363.73 715.348 364.496C715.348 365.17 715.078 366.013 714.538 367.024C714.125 367.882 713.664 368.74 713.155 369.599C712.647 370.457 712.218 371.33 711.868 372.219C711.741 372.525 711.63 372.847 711.535 373.184C711.471 373.491 711.439 373.767 711.439 374.012C711.439 374.625 711.725 374.931 712.297 374.931C712.615 374.931 713.028 374.839 713.537 374.655C714.426 374.288 715.348 373.705 716.301 372.908C717.286 372.112 718.208 371.238 719.066 370.288C719.924 369.338 720.623 368.465 721.163 367.668C721.449 367.269 721.703 367.07 721.926 367.07C722.053 367.07 722.117 367.147 722.117 367.3C722.117 367.514 721.989 367.79 721.735 368.127C721.195 368.955 720.464 369.874 719.543 370.886C718.653 371.866 717.7 372.786 716.683 373.644C715.666 374.471 714.681 375.084 713.727 375.483C712.838 375.851 712.075 376.035 711.439 376.035ZM708.341 362.427C708.373 362.304 708.389 362.09 708.389 361.783C708.389 361.538 708.373 361.278 708.341 361.002C708.341 360.695 708.341 360.389 708.341 360.082C708.341 358.795 708.166 358.182 707.817 358.244C707.69 358.274 707.578 358.427 707.483 358.703C707.388 358.979 707.34 359.301 707.34 359.669C707.34 360.19 707.42 360.726 707.578 361.278C707.769 361.829 708.023 362.212 708.341 362.427Z" fill="white"/>
<path d="M727.236 376.08C726.124 376.142 725.218 375.958 724.519 375.529C723.852 375.069 723.359 374.471 723.042 373.736C722.756 372.97 722.613 372.173 722.613 371.345C722.613 370.886 722.66 370.426 722.756 369.966C722.851 369.507 722.962 369.078 723.089 368.679C723.439 367.698 723.915 366.794 724.519 365.967C725.123 365.139 725.774 364.434 726.474 363.852C727.141 363.3 727.872 362.871 728.666 362.565C729.492 362.228 730.255 362.059 730.954 362.059C731.653 362.059 732.241 362.243 732.718 362.611C733.194 362.948 733.433 363.515 733.433 364.312C733.433 364.741 733.337 365.277 733.147 365.921C732.797 366.993 732.05 367.944 730.906 368.771C729.794 369.599 728.587 370.012 727.284 370.012C726.903 370.012 726.489 369.966 726.045 369.874C725.822 370.641 725.711 371.422 725.711 372.219C725.711 373.046 725.886 373.736 726.235 374.288C726.617 374.809 727.22 375.069 728.046 375.069C729 375.069 730.048 374.763 731.192 374.15C732.336 373.506 733.48 372.648 734.624 371.575C735.8 370.503 736.865 369.277 737.818 367.898C737.945 367.683 738.088 367.576 738.247 367.576C738.406 367.576 738.485 367.698 738.485 367.944C738.485 368.189 738.406 368.403 738.247 368.587C737.389 369.721 736.404 370.855 735.292 371.989C734.179 373.092 732.956 374.027 731.621 374.793C730.287 375.559 728.825 375.989 727.236 376.08ZM726.95 369.231C727.49 369.231 728.078 369.032 728.714 368.633C729.349 368.235 729.937 367.76 730.477 367.208C731.049 366.656 731.447 366.151 731.669 365.691C732.019 365.017 732.193 364.45 732.193 363.99C732.193 363.561 732.066 363.27 731.812 363.117C731.59 362.963 731.415 362.887 731.288 362.887C730.97 362.887 730.525 363.055 729.953 363.392C729.413 363.73 728.873 364.266 728.332 365.001C727.824 365.645 727.379 366.335 726.998 367.07C726.617 367.806 726.378 368.48 726.283 369.093C726.474 369.185 726.696 369.231 726.95 369.231Z" fill="white"/>
<path d="M740.047 377C738.68 377 737.679 376.739 737.044 376.218C736.408 375.697 736.09 375.146 736.09 374.563C736.09 374.073 736.297 373.659 736.71 373.322C737.091 372.954 737.648 372.801 738.378 372.862C739.459 372.924 740.555 373.077 741.667 373.322C742.78 373.537 743.86 373.613 744.909 373.552C745.195 373.062 745.433 372.51 745.624 371.897C745.814 371.284 745.91 370.687 745.91 370.104C745.91 369.43 745.735 368.756 745.385 368.081C745.068 367.407 744.686 366.794 744.241 366.243C743.828 365.66 743.463 365.201 743.145 364.863C742.509 365.936 741.81 366.978 741.048 367.99C740.317 369.001 739.522 369.982 738.664 370.932C738.347 371.269 738.077 371.437 737.854 371.437C737.727 371.437 737.663 371.376 737.663 371.254C737.663 371.131 737.838 370.87 738.188 370.472C739.109 369.43 739.967 368.311 740.762 367.116C741.556 365.921 742.16 364.986 742.573 364.312C742.351 364.067 742.144 363.668 741.953 363.117C741.763 362.534 741.667 361.952 741.667 361.37C741.667 360.481 741.858 359.638 742.239 358.841C742.621 358.044 743.193 357.646 743.955 357.646C744.4 357.646 744.766 357.769 745.052 358.014C745.338 358.228 745.481 358.673 745.481 359.347C745.481 359.561 745.465 359.791 745.433 360.036C745.401 360.282 745.354 360.558 745.29 360.864C745.163 361.262 744.956 361.737 744.67 362.289C744.384 362.841 744.162 363.239 744.003 363.484C744.67 364.251 745.354 364.94 746.053 365.553C746.752 366.135 747.34 366.794 747.816 367.53C748.293 368.265 748.531 369.231 748.531 370.426C748.531 370.824 748.468 371.284 748.341 371.805C748.213 372.296 748.055 372.74 747.864 373.138C748.69 373.016 749.628 372.556 750.676 371.759C751.757 370.932 752.805 369.782 753.822 368.311C754.045 367.974 754.283 367.806 754.537 367.806C754.696 367.806 754.775 367.882 754.775 368.036C754.775 368.127 754.728 368.25 754.632 368.403C753.457 370.089 752.249 371.453 751.01 372.495C749.802 373.506 748.547 374.104 747.244 374.288C746.513 375.238 745.497 375.927 744.194 376.356C742.923 376.785 741.54 377 740.047 377ZM743.479 362.841C743.574 362.596 743.701 362.304 743.86 361.967C744.051 361.6 744.21 361.17 744.337 360.68C744.432 360.312 744.48 359.975 744.48 359.669C744.48 358.964 744.337 358.611 744.051 358.611C743.892 358.611 743.685 358.78 743.431 359.117C743.177 359.454 743.05 359.96 743.05 360.634C743.05 361.033 743.081 361.446 743.145 361.875C743.24 362.304 743.352 362.626 743.479 362.841ZM740.19 376.08C741.048 376.08 741.81 375.927 742.478 375.621C743.177 375.284 743.781 374.87 744.289 374.38C743.463 374.38 742.684 374.334 741.953 374.242C741.222 374.15 740.444 374.088 739.618 374.058C739.141 374.027 738.776 374.104 738.521 374.288C738.299 374.441 738.188 374.64 738.188 374.885C738.188 375.161 738.347 375.437 738.664 375.713C739.014 375.958 739.522 376.08 740.19 376.08Z" fill="white"/>
<path d="M758.542 376.172C757.493 376.172 756.619 375.866 755.92 375.253C755.221 374.609 754.872 373.782 754.872 372.771C754.872 372.25 754.967 371.713 755.158 371.162C755.793 369.476 756.54 367.729 757.398 365.921C758.256 364.082 759.177 362.289 760.162 360.542H758.542C757.843 360.542 757.493 360.404 757.493 360.128C757.493 359.975 757.588 359.853 757.779 359.761C758.002 359.638 758.256 359.577 758.542 359.577C758.86 359.546 759.193 359.546 759.543 359.577C759.892 359.577 760.274 359.577 760.687 359.577L764.786 352.313C764.913 352.068 765.199 351.915 765.644 351.854C766.121 351.762 766.47 351.716 766.693 351.716C767.042 351.716 767.376 351.792 767.694 351.946C768.043 352.099 768.154 352.267 768.027 352.451C767.932 352.574 767.725 352.911 767.408 353.463C767.122 354.014 766.772 354.658 766.359 355.393C765.946 356.129 765.517 356.88 765.072 357.646C764.659 358.382 764.293 359.025 763.976 359.577H766.025C766.82 359.577 767.662 359.577 768.552 359.577C769.473 359.546 770.299 359.5 771.03 359.439C771.761 359.378 772.238 359.301 772.46 359.209C772.651 359.117 772.842 359.071 773.032 359.071C773.35 359.071 773.509 359.194 773.509 359.439C773.509 359.715 773.286 359.975 772.842 360.22C772.524 360.374 771.904 360.481 770.983 360.542C770.061 360.573 768.996 360.588 767.789 360.588H766.168C765.755 360.588 765.31 360.588 764.834 360.588C764.357 360.558 763.896 360.542 763.451 360.542C762.403 362.412 761.322 364.266 760.21 366.105C759.13 367.913 758.256 369.844 757.588 371.897C757.398 372.479 757.302 373 757.302 373.46C757.302 374.563 757.811 375.115 758.828 375.115C759.336 375.115 759.972 374.931 760.734 374.563C762.133 373.889 763.499 372.924 764.834 371.667C766.168 370.411 767.328 369.108 768.313 367.76C768.472 367.514 768.647 367.392 768.838 367.392C768.965 367.392 769.028 367.469 769.028 367.622C769.028 367.775 768.965 367.959 768.838 368.173C767.821 369.645 766.693 370.993 765.453 372.219C764.246 373.445 762.863 374.502 761.306 375.391C760.321 375.912 759.4 376.172 758.542 376.172Z" fill="white"/>
<path d="M781.283 375.989C780.393 375.989 779.758 375.651 779.376 374.977C778.995 374.303 778.804 373.521 778.804 372.633C778.804 372.479 778.804 372.311 778.804 372.127C778.804 371.943 778.82 371.775 778.852 371.621C778.248 372.663 777.47 373.644 776.516 374.563C775.563 375.483 774.387 375.943 772.989 375.943C772.036 375.943 771.225 375.605 770.558 374.931C769.922 374.257 769.605 373.23 769.605 371.851C769.605 370.748 769.922 369.369 770.558 367.714C770.908 366.917 771.416 366.105 772.083 365.277C772.751 364.45 773.561 363.76 774.514 363.209C775.468 362.626 776.532 362.335 777.708 362.335C778.979 362.335 779.869 362.565 780.377 363.025C780.886 363.484 781.203 363.837 781.33 364.082C781.33 364.113 781.33 364.143 781.33 364.174C781.362 364.174 781.378 364.189 781.378 364.22C781.378 364.496 781.203 364.634 780.854 364.634C780.695 364.634 780.536 364.557 780.377 364.404C779.996 363.975 779.615 363.668 779.233 363.484C778.852 363.3 778.486 363.209 778.137 363.209C777.406 363.209 776.723 363.515 776.087 364.128C775.452 364.71 774.88 365.415 774.371 366.243C773.895 367.039 773.497 367.79 773.18 368.495C772.735 369.476 772.401 370.365 772.179 371.162C771.988 371.928 771.893 372.571 771.893 373.092C771.893 374.471 772.385 375.161 773.37 375.161C774.069 375.161 774.896 374.732 775.849 373.874C776.802 373.016 777.708 371.744 778.566 370.058C779.329 368.587 780.012 367.285 780.616 366.151C781.219 364.986 781.744 363.975 782.188 363.117C782.284 362.902 782.522 362.749 782.903 362.657C783.285 362.534 783.666 362.473 784.047 362.473C784.397 362.473 784.715 362.534 785.001 362.657C785.287 362.749 785.43 362.917 785.43 363.163C785.43 363.285 785.35 363.454 785.191 363.668C784.81 364.189 784.318 364.955 783.714 365.967C783.142 366.978 782.602 368.036 782.093 369.139C781.617 370.242 781.299 371.223 781.14 372.081C781.045 372.541 780.997 372.954 780.997 373.322C780.997 374.303 781.346 374.793 782.046 374.793C782.268 374.793 782.617 374.717 783.094 374.563C783.984 374.196 784.89 373.629 785.811 372.862C786.764 372.066 787.654 371.192 788.48 370.242C789.338 369.292 790.053 368.403 790.625 367.576C790.911 367.177 791.134 366.978 791.293 366.978C791.388 366.978 791.436 367.055 791.436 367.208C791.436 367.453 791.309 367.76 791.054 368.127C790.482 368.955 789.751 369.874 788.862 370.886C788.004 371.897 787.066 372.832 786.049 373.69C785.064 374.548 784.095 375.176 783.142 375.575C782.443 375.851 781.823 375.989 781.283 375.989Z" fill="white"/>
<path d="M795.584 375.989C794.599 375.989 793.9 375.713 793.487 375.161C793.106 374.579 792.915 373.874 792.915 373.046C792.915 372.25 793.026 371.422 793.249 370.564C793.503 369.675 793.789 368.848 794.107 368.081C794.425 367.315 794.679 366.718 794.869 366.289C794.456 366.871 794.027 367.453 793.582 368.036C793.169 368.618 792.709 369.185 792.2 369.736C791.914 370.043 791.644 370.196 791.39 370.196C791.263 370.196 791.199 370.135 791.199 370.012C791.199 369.89 791.279 369.736 791.438 369.553C792.55 368.173 793.471 366.902 794.202 365.737C794.965 364.572 795.537 363.699 795.918 363.117C796.172 362.688 796.585 362.427 797.157 362.335C797.729 362.243 798.222 362.212 798.635 362.243C798.762 362.243 798.905 362.258 799.064 362.289C799.223 362.289 799.461 362.289 799.779 362.289C799.112 363.392 798.524 364.588 798.015 365.875C797.507 367.162 796.967 368.388 796.395 369.553C795.918 370.503 795.569 371.33 795.346 372.035C795.124 372.74 795.012 373.322 795.012 373.782C795.012 374.609 795.314 375.023 795.918 375.023C796.395 375.023 796.999 374.655 797.729 373.92C798.46 373.154 799.207 372.204 799.97 371.07C800.732 369.936 801.368 368.786 801.876 367.622C802.258 366.825 802.623 366.013 802.973 365.185C803.354 364.358 803.656 363.668 803.878 363.117C804.005 362.902 804.307 362.749 804.784 362.657C805.292 362.534 805.848 362.458 806.452 362.427C807.088 362.396 807.66 362.381 808.168 362.381C807.755 362.749 807.278 363.377 806.738 364.266C806.23 365.124 805.721 366.105 805.213 367.208C804.736 368.311 804.339 369.399 804.021 370.472C803.703 371.545 803.545 372.464 803.545 373.23C803.545 373.353 803.545 373.475 803.545 373.598C803.576 373.721 803.608 373.843 803.64 373.966C803.799 374.517 804.18 374.793 804.784 374.793C804.943 374.793 805.102 374.778 805.261 374.747C805.451 374.717 805.658 374.655 805.88 374.563C806.77 374.196 807.692 373.644 808.645 372.908C809.598 372.173 810.504 371.345 811.362 370.426C812.22 369.507 812.935 368.633 813.507 367.806C813.793 367.407 814.031 367.208 814.222 367.208C814.317 367.208 814.365 367.269 814.365 367.392C814.365 367.637 814.238 367.944 813.983 368.311C813.411 369.139 812.696 370.043 811.838 371.024C811.012 372.004 810.107 372.908 809.122 373.736C808.168 374.563 807.215 375.176 806.262 375.575C805.562 375.851 804.911 375.989 804.307 375.989C803.1 375.989 802.178 375.529 801.543 374.609C800.939 373.659 800.701 372.648 800.828 371.575C800.097 372.771 799.286 373.813 798.397 374.701C797.539 375.559 796.601 375.989 795.584 375.989Z" fill="white"/>
<path d="M821.21 376.035C820.416 376.035 819.812 375.805 819.399 375.345C818.986 374.855 818.779 374.226 818.779 373.46C818.779 373.123 818.811 372.755 818.875 372.357C818.97 371.928 819.113 371.514 819.304 371.116C819.653 370.319 820.051 369.568 820.495 368.863C820.972 368.127 821.401 367.331 821.782 366.472C822.005 366.013 822.116 365.599 822.116 365.231C822.116 364.772 821.925 364.465 821.544 364.312C821.163 364.128 820.702 364.021 820.162 363.99C819.622 363.929 819.113 363.852 818.636 363.76C818.128 365.17 817.524 366.427 816.825 367.53C816.158 368.633 815.316 369.736 814.299 370.84C813.949 371.177 813.695 371.345 813.536 371.345C813.409 371.345 813.346 371.284 813.346 371.162C813.346 370.947 813.52 370.656 813.87 370.288C814.569 369.522 815.189 368.71 815.729 367.852C816.301 366.963 816.762 366.135 817.111 365.369C817.492 364.603 817.731 364.036 817.826 363.668C817.127 363.392 816.571 362.871 816.158 362.105C815.745 361.308 815.538 360.527 815.538 359.761C815.538 358.841 815.776 358.09 816.253 357.508C816.73 356.895 817.222 356.589 817.731 356.589C818.176 356.589 818.573 356.834 818.922 357.324C819.272 357.815 819.447 358.642 819.447 359.807C819.447 360.297 819.383 360.803 819.256 361.324C819.129 361.814 819.018 362.228 818.922 362.565C819.304 362.626 819.749 362.672 820.257 362.703C820.766 362.703 821.195 362.718 821.544 362.749C821.957 362.749 822.354 362.764 822.736 362.795C823.149 362.825 823.514 362.887 823.832 362.979C824.69 363.224 825.119 363.73 825.119 364.496C825.119 365.17 824.849 366.013 824.309 367.024C823.896 367.882 823.435 368.74 822.926 369.599C822.418 370.457 821.989 371.33 821.639 372.219C821.512 372.525 821.401 372.847 821.306 373.184C821.242 373.491 821.21 373.767 821.21 374.012C821.21 374.625 821.496 374.931 822.068 374.931C822.386 374.931 822.799 374.839 823.308 374.655C824.197 374.288 825.119 373.705 826.072 372.908C827.057 372.112 827.979 371.238 828.837 370.288C829.695 369.338 830.394 368.465 830.934 367.668C831.22 367.269 831.474 367.07 831.697 367.07C831.824 367.07 831.888 367.147 831.888 367.3C831.888 367.514 831.76 367.79 831.506 368.127C830.966 368.955 830.235 369.874 829.314 370.886C828.424 371.866 827.47 372.786 826.454 373.644C825.437 374.471 824.452 375.084 823.498 375.483C822.609 375.851 821.846 376.035 821.21 376.035ZM818.112 362.427C818.144 362.304 818.16 362.09 818.16 361.783C818.16 361.538 818.144 361.278 818.112 361.002C818.112 360.695 818.112 360.389 818.112 360.082C818.112 358.795 817.937 358.182 817.588 358.244C817.461 358.274 817.349 358.427 817.254 358.703C817.159 358.979 817.111 359.301 817.111 359.669C817.111 360.19 817.191 360.726 817.349 361.278C817.54 361.829 817.794 362.212 818.112 362.427Z" fill="white"/>
<path d="M843.919 375.989C843.029 375.989 842.393 375.651 842.012 374.977C841.631 374.303 841.44 373.521 841.44 372.633C841.44 372.479 841.44 372.311 841.44 372.127C841.44 371.943 841.456 371.775 841.488 371.621C840.884 372.663 840.105 373.644 839.152 374.563C838.199 375.483 837.023 375.943 835.625 375.943C834.672 375.943 833.861 375.605 833.194 374.931C832.558 374.257 832.241 373.23 832.241 371.851C832.241 370.748 832.558 369.369 833.194 367.714C833.543 366.917 834.052 366.105 834.719 365.277C835.386 364.45 836.197 363.76 837.15 363.209C838.103 362.626 839.168 362.335 840.344 362.335C841.615 362.335 842.505 362.565 843.013 363.025C843.521 363.484 843.839 363.837 843.966 364.082C843.966 364.113 843.966 364.143 843.966 364.174C843.998 364.174 844.014 364.189 844.014 364.22C844.014 364.496 843.839 364.634 843.49 364.634C843.331 364.634 843.172 364.557 843.013 364.404C842.632 363.975 842.25 363.668 841.869 363.484C841.488 363.3 841.122 363.209 840.773 363.209C840.042 363.209 839.359 363.515 838.723 364.128C838.088 364.71 837.516 365.415 837.007 366.243C836.53 367.039 836.133 367.79 835.815 368.495C835.371 369.476 835.037 370.365 834.815 371.162C834.624 371.928 834.529 372.571 834.529 373.092C834.529 374.471 835.021 375.161 836.006 375.161C836.705 375.161 837.531 374.732 838.485 373.874C839.438 373.016 840.344 371.744 841.202 370.058C841.964 368.587 842.648 367.285 843.251 366.151C843.855 364.986 844.379 363.975 844.824 363.117C844.92 362.902 845.158 362.749 845.539 362.657C845.921 362.534 846.302 362.473 846.683 362.473C847.033 362.473 847.351 362.534 847.637 362.657C847.923 362.749 848.066 362.917 848.066 363.163C848.066 363.285 847.986 363.454 847.827 363.668C847.446 364.189 846.953 364.955 846.35 365.967C845.778 366.978 845.237 368.036 844.729 369.139C844.252 370.242 843.935 371.223 843.776 372.081C843.68 372.541 843.633 372.954 843.633 373.322C843.633 374.303 843.982 374.793 844.681 374.793C844.904 374.793 845.253 374.717 845.73 374.563C846.62 374.196 847.525 373.629 848.447 372.862C849.4 372.066 850.29 371.192 851.116 370.242C851.974 369.292 852.689 368.403 853.261 367.576C853.547 367.177 853.77 366.978 853.928 366.978C854.024 366.978 854.071 367.055 854.071 367.208C854.071 367.453 853.944 367.76 853.69 368.127C853.118 368.955 852.387 369.874 851.498 370.886C850.64 371.897 849.702 372.832 848.685 373.69C847.7 374.548 846.731 375.176 845.778 375.575C845.079 375.851 844.459 375.989 843.919 375.989Z" fill="white"/>
<path d="M852.929 376.448C853.724 374.763 854.518 373.031 855.313 371.254C856.107 369.476 856.838 367.821 857.505 366.289C857.092 366.871 856.663 367.453 856.218 368.036C855.805 368.618 855.344 369.185 854.836 369.736C854.55 370.043 854.296 370.196 854.073 370.196C853.946 370.196 853.883 370.135 853.883 370.012C853.883 369.92 853.962 369.782 854.121 369.599C855.233 368.219 856.155 366.948 856.886 365.783C857.616 364.588 858.173 363.699 858.554 363.117C858.808 362.688 859.126 362.458 859.507 362.427C859.92 362.366 860.27 362.335 860.556 362.335C860.683 362.335 860.905 362.35 861.223 362.381C861.541 362.381 861.859 362.381 862.177 362.381C862.049 362.626 861.795 363.055 861.414 363.668C861.064 364.281 860.683 364.925 860.27 365.599C859.889 366.273 859.571 366.886 859.317 367.438C859.761 366.917 860.381 366.181 861.176 365.231C862.002 364.251 862.955 363.438 864.035 362.795C865.052 362.212 865.974 361.921 866.8 361.921C868.167 361.921 868.85 362.611 868.85 363.99C868.85 364.358 868.786 364.772 868.659 365.231C868.532 365.691 868.325 366.181 868.039 366.702C867.436 367.836 866.784 369.032 866.085 370.288C865.418 371.514 864.925 372.663 864.607 373.736C864.576 373.859 864.544 373.966 864.512 374.058C864.512 374.15 864.512 374.242 864.512 374.334C864.512 374.885 864.798 375.161 865.37 375.161C865.688 375.161 866.053 375.069 866.466 374.885C867.356 374.517 868.31 373.935 869.326 373.138C870.343 372.341 871.297 371.468 872.186 370.518C873.108 369.568 873.839 368.694 874.379 367.898C874.57 367.591 874.76 367.438 874.951 367.438C875.11 367.438 875.189 367.514 875.189 367.668C875.189 367.852 875.126 368.02 874.999 368.173C874.427 369.001 873.68 369.936 872.758 370.978C871.869 371.989 870.899 372.939 869.851 373.828C868.834 374.686 867.849 375.314 866.895 375.713C866.228 375.958 865.593 376.08 864.989 376.08C864.163 376.08 863.432 375.881 862.796 375.483C862.192 375.054 861.891 374.426 861.891 373.598C861.891 373.475 861.891 373.353 861.891 373.23C861.922 373.077 861.954 372.939 861.986 372.817C862.24 371.683 862.749 370.518 863.511 369.323C864.274 368.097 864.973 366.917 865.608 365.783C865.958 365.109 866.133 364.588 866.133 364.22C866.133 363.73 865.879 363.484 865.37 363.484C865.148 363.484 864.893 363.53 864.607 363.622C864.321 363.714 864.02 363.883 863.702 364.128C863.035 364.557 862.335 365.216 861.605 366.105C860.874 366.963 860.127 368.02 859.364 369.277C858.665 370.472 858.014 371.667 857.41 372.862C856.806 374.058 856.314 375.054 855.932 375.851C855.456 375.851 854.9 375.927 854.264 376.08C853.66 376.234 853.215 376.356 852.929 376.448Z" fill="white"/>
<path d="M878.833 376.172C877.784 376.172 876.91 375.866 876.211 375.253C875.512 374.609 875.162 373.782 875.162 372.771C875.162 372.25 875.258 371.713 875.448 371.162C876.084 369.476 876.831 367.729 877.689 365.921C878.547 364.082 879.468 362.289 880.453 360.542H878.833C878.134 360.542 877.784 360.404 877.784 360.128C877.784 359.975 877.879 359.853 878.07 359.761C878.293 359.638 878.547 359.577 878.833 359.577C879.151 359.546 879.484 359.546 879.834 359.577C880.183 359.577 880.565 359.577 880.978 359.577L885.077 352.313C885.204 352.068 885.49 351.915 885.935 351.854C886.412 351.762 886.761 351.716 886.984 351.716C887.333 351.716 887.667 351.792 887.985 351.946C888.334 352.099 888.445 352.267 888.318 352.451C888.223 352.574 888.016 352.911 887.699 353.463C887.413 354.014 887.063 354.658 886.65 355.393C886.237 356.129 885.808 356.88 885.363 357.646C884.95 358.382 884.584 359.025 884.267 359.577H886.316C887.111 359.577 887.953 359.577 888.843 359.577C889.764 359.546 890.59 359.5 891.321 359.439C892.052 359.378 892.529 359.301 892.751 359.209C892.942 359.117 893.132 359.071 893.323 359.071C893.641 359.071 893.8 359.194 893.8 359.439C893.8 359.715 893.577 359.975 893.132 360.22C892.815 360.374 892.195 360.481 891.274 360.542C890.352 360.573 889.287 360.588 888.08 360.588H886.459C886.046 360.588 885.601 360.588 885.125 360.588C884.648 360.558 884.187 360.542 883.742 360.542C882.694 362.412 881.613 364.266 880.501 366.105C879.421 367.913 878.547 369.844 877.879 371.897C877.689 372.479 877.593 373 877.593 373.46C877.593 374.563 878.102 375.115 879.119 375.115C879.627 375.115 880.263 374.931 881.025 374.563C882.424 373.889 883.79 372.924 885.125 371.667C886.459 370.411 887.619 369.108 888.604 367.76C888.763 367.514 888.938 367.392 889.129 367.392C889.256 367.392 889.319 367.469 889.319 367.622C889.319 367.775 889.256 367.959 889.129 368.173C888.112 369.645 886.984 370.993 885.744 372.219C884.537 373.445 883.154 374.502 881.597 375.391C880.612 375.912 879.691 376.172 878.833 376.172Z" fill="white"/>
</svg>
